%TF.GenerationSoftware,KiCad,Pcbnew,9.0.0*%
%TF.CreationDate,2025-05-09T14:52:43+01:00*%
%TF.ProjectId,v0b,7630622e-6b69-4636-9164-5f7063625858,rev?*%
%TF.SameCoordinates,Original*%
%TF.FileFunction,Soldermask,Bot*%
%TF.FilePolarity,Negative*%
%FSLAX46Y46*%
G04 Gerber Fmt 4.6, Leading zero omitted, Abs format (unit mm)*
G04 Created by KiCad (PCBNEW 9.0.0) date 2025-05-09 14:52:43*
%MOMM*%
%LPD*%
G01*
G04 APERTURE LIST*
G04 Aperture macros list*
%AMFreePoly0*
4,1,23,0.500000,-0.750000,0.000000,-0.750000,0.000000,-0.745722,-0.065263,-0.745722,-0.191342,-0.711940,-0.304381,-0.646677,-0.396677,-0.554381,-0.461940,-0.441342,-0.495722,-0.315263,-0.495722,-0.250000,-0.500000,-0.250000,-0.500000,0.250000,-0.495722,0.250000,-0.495722,0.315263,-0.461940,0.441342,-0.396677,0.554381,-0.304381,0.646677,-0.191342,0.711940,-0.065263,0.745722,0.000000,0.745722,
0.000000,0.750000,0.500000,0.750000,0.500000,-0.750000,0.500000,-0.750000,$1*%
%AMFreePoly1*
4,1,23,0.000000,0.745722,0.065263,0.745722,0.191342,0.711940,0.304381,0.646677,0.396677,0.554381,0.461940,0.441342,0.495722,0.315263,0.495722,0.250000,0.500000,0.250000,0.500000,-0.250000,0.495722,-0.250000,0.495722,-0.315263,0.461940,-0.441342,0.396677,-0.554381,0.304381,-0.646677,0.191342,-0.711940,0.065263,-0.745722,0.000000,-0.745722,0.000000,-0.750000,-0.500000,-0.750000,
-0.500000,0.750000,0.000000,0.750000,0.000000,0.745722,0.000000,0.745722,$1*%
G04 Aperture macros list end*
%ADD10C,0.100000*%
%ADD11C,1.500000*%
%ADD12R,1.600000X1.600000*%
%ADD13O,1.600000X1.600000*%
%ADD14C,1.600000*%
%ADD15C,1.400000*%
%ADD16O,1.400000X1.400000*%
%ADD17FreePoly0,90.000000*%
%ADD18FreePoly1,90.000000*%
%ADD19FreePoly0,0.000000*%
%ADD20FreePoly1,0.000000*%
%ADD21FreePoly0,270.000000*%
%ADD22FreePoly1,270.000000*%
G04 APERTURE END LIST*
%TO.C,H1*%
D10*
X36117800Y-82370000D02*
X115762400Y-82370000D01*
X115762400Y-92441400D01*
X36117800Y-92441400D01*
X36117800Y-82370000D01*
G36*
X36117800Y-82370000D02*
G01*
X115762400Y-82370000D01*
X115762400Y-92441400D01*
X36117800Y-92441400D01*
X36117800Y-82370000D01*
G37*
%TO.C,JP3*%
G36*
X111240000Y-42710000D02*
G01*
X109740000Y-42710000D01*
X109740000Y-42410000D01*
X111240000Y-42410000D01*
X111240000Y-42710000D01*
G37*
%TO.C,JP1*%
G36*
X116320000Y-42680000D02*
G01*
X114820000Y-42680000D01*
X114820000Y-42380000D01*
X116320000Y-42380000D01*
X116320000Y-42680000D01*
G37*
%TO.C,JP8*%
G36*
X83050000Y-80125000D02*
G01*
X83350000Y-80125000D01*
X83350000Y-78625000D01*
X83050000Y-78625000D01*
X83050000Y-80125000D01*
G37*
%TO.C,JP6*%
G36*
X80530000Y-71590000D02*
G01*
X82030000Y-71590000D01*
X82030000Y-71890000D01*
X80530000Y-71890000D01*
X80530000Y-71590000D01*
G37*
%TO.C,JP2*%
G36*
X113780000Y-42695000D02*
G01*
X112280000Y-42695000D01*
X112280000Y-42395000D01*
X113780000Y-42395000D01*
X113780000Y-42695000D01*
G37*
%TO.C,JP4*%
G36*
X108700000Y-42710000D02*
G01*
X107200000Y-42710000D01*
X107200000Y-42410000D01*
X108700000Y-42410000D01*
X108700000Y-42710000D01*
G37*
%TO.C,JP7*%
G36*
X102085000Y-58194400D02*
G01*
X102385000Y-58194400D01*
X102385000Y-56694400D01*
X102085000Y-56694400D01*
X102085000Y-58194400D01*
G37*
%TO.C,JP5*%
G36*
X87110000Y-64300000D02*
G01*
X85610000Y-64300000D01*
X85610000Y-64000000D01*
X87110000Y-64000000D01*
X87110000Y-64300000D01*
G37*
%TD*%
D11*
%TO.C,TP96*%
X60960000Y-38100000D03*
%TD*%
%TO.C,TP95*%
X60960000Y-40640000D03*
%TD*%
%TO.C,TP94*%
X60960000Y-43180000D03*
%TD*%
%TO.C,TP93*%
X60960000Y-48260000D03*
%TD*%
%TO.C,TP92*%
X60960000Y-45720000D03*
%TD*%
%TO.C,TP91*%
X60960000Y-50800000D03*
%TD*%
%TO.C,TP90*%
X60960000Y-53340000D03*
%TD*%
%TO.C,TP89*%
X60960000Y-35560000D03*
%TD*%
%TO.C,TP88*%
X58420000Y-48260000D03*
%TD*%
%TO.C,TP87*%
X58420000Y-53340000D03*
%TD*%
%TO.C,TP86*%
X58420000Y-45720000D03*
%TD*%
%TO.C,TP85*%
X58420000Y-50800000D03*
%TD*%
%TO.C,TP84*%
X58420000Y-40640000D03*
%TD*%
%TO.C,TP83*%
X58420000Y-43180000D03*
%TD*%
%TO.C,TP82*%
X58420000Y-38100000D03*
%TD*%
%TO.C,TP81*%
X58420000Y-35560000D03*
%TD*%
%TO.C,TP80*%
X55880000Y-53340000D03*
%TD*%
%TO.C,TP79*%
X55880000Y-50800000D03*
%TD*%
%TO.C,TP78*%
X55880000Y-48260000D03*
%TD*%
%TO.C,TP77*%
X55880000Y-45720000D03*
%TD*%
%TO.C,TP76*%
X55880000Y-43180000D03*
%TD*%
%TO.C,TP75*%
X55880000Y-40640000D03*
%TD*%
%TO.C,TP74*%
X55880000Y-38100000D03*
%TD*%
%TO.C,TP73*%
X55880000Y-35560000D03*
%TD*%
%TO.C,TP72*%
X53340000Y-53340000D03*
%TD*%
%TO.C,TP71*%
X53340000Y-50800000D03*
%TD*%
%TO.C,TP70*%
X53340000Y-48260000D03*
%TD*%
%TO.C,TP69*%
X53340000Y-45720000D03*
%TD*%
%TO.C,TP68*%
X53340000Y-43180000D03*
%TD*%
%TO.C,TP67*%
X53340000Y-40640000D03*
%TD*%
%TO.C,TP66*%
X53340000Y-38100000D03*
%TD*%
%TO.C,TP65*%
X53340000Y-35560000D03*
%TD*%
%TO.C,TP64*%
X50800000Y-53340000D03*
%TD*%
%TO.C,TP63*%
X50800000Y-50800000D03*
%TD*%
%TO.C,TP62*%
X50800000Y-48260000D03*
%TD*%
%TO.C,TP61*%
X50800000Y-45720000D03*
%TD*%
%TO.C,TP60*%
X50800000Y-43180000D03*
%TD*%
%TO.C,TP59*%
X50800000Y-40640000D03*
%TD*%
%TO.C,TP58*%
X50800000Y-38100000D03*
%TD*%
%TO.C,TP57*%
X50800000Y-35560000D03*
%TD*%
%TO.C,TP56*%
X48260000Y-53340000D03*
%TD*%
%TO.C,TP55*%
X48260000Y-50800000D03*
%TD*%
%TO.C,TP54*%
X48260000Y-48260000D03*
%TD*%
%TO.C,TP53*%
X48260000Y-45720000D03*
%TD*%
%TO.C,TP52*%
X48260000Y-43180000D03*
%TD*%
%TO.C,TP51*%
X48260000Y-40640000D03*
%TD*%
%TO.C,TP50*%
X48260000Y-38100000D03*
%TD*%
%TO.C,TP49*%
X48260000Y-35560000D03*
%TD*%
%TO.C,TP48*%
X45720000Y-53340000D03*
%TD*%
%TO.C,TP47*%
X45720000Y-50800000D03*
%TD*%
%TO.C,TP46*%
X45720000Y-48260000D03*
%TD*%
%TO.C,TP45*%
X45720000Y-45720000D03*
%TD*%
%TO.C,TP44*%
X45720000Y-43180000D03*
%TD*%
%TO.C,TP43*%
X45720000Y-40640000D03*
%TD*%
%TO.C,TP42*%
X45720000Y-38100000D03*
%TD*%
%TO.C,TP41*%
X45720000Y-35560000D03*
%TD*%
%TO.C,TP40*%
X43180000Y-53340000D03*
%TD*%
%TO.C,TP39*%
X43180000Y-50800000D03*
%TD*%
%TO.C,TP38*%
X43180000Y-48260000D03*
%TD*%
%TO.C,TP37*%
X43180000Y-45720000D03*
%TD*%
%TO.C,TP36*%
X43180000Y-43180000D03*
%TD*%
%TO.C,TP35*%
X43180000Y-40640000D03*
%TD*%
%TO.C,TP34*%
X43180000Y-38100000D03*
%TD*%
%TO.C,TP33*%
X43180000Y-35560000D03*
%TD*%
%TO.C,TP32*%
X40640000Y-53340000D03*
%TD*%
%TO.C,TP31*%
X40640000Y-50800000D03*
%TD*%
%TO.C,TP30*%
X40640000Y-48260000D03*
%TD*%
%TO.C,TP29*%
X40640000Y-45720000D03*
%TD*%
%TO.C,TP28*%
X40640000Y-43180000D03*
%TD*%
%TO.C,TP27*%
X40640000Y-40640000D03*
%TD*%
%TO.C,TP26*%
X40640000Y-38100000D03*
%TD*%
%TO.C,TP25*%
X40640000Y-35560000D03*
%TD*%
%TO.C,TP24*%
X38100000Y-53340000D03*
%TD*%
%TO.C,TP23*%
X38100000Y-50800000D03*
%TD*%
%TO.C,TP22*%
X38100000Y-48260000D03*
%TD*%
%TO.C,TP21*%
X38100000Y-45720000D03*
%TD*%
%TO.C,TP20*%
X38100000Y-43180000D03*
%TD*%
%TO.C,TP19*%
X38100000Y-40640000D03*
%TD*%
%TO.C,TP18*%
X38100000Y-38100000D03*
%TD*%
%TO.C,TP17*%
X38100000Y-35560000D03*
%TD*%
%TO.C,TP16*%
X35560000Y-53340000D03*
%TD*%
%TO.C,TP15*%
X35560000Y-50800000D03*
%TD*%
%TO.C,TP14*%
X35560000Y-48260000D03*
%TD*%
%TO.C,TP13*%
X35560000Y-45720000D03*
%TD*%
%TO.C,TP12*%
X35560000Y-43180000D03*
%TD*%
%TO.C,TP11*%
X35560000Y-40640000D03*
%TD*%
%TO.C,TP10*%
X35560000Y-38100000D03*
%TD*%
%TO.C,TP9*%
X35560000Y-35560000D03*
%TD*%
%TO.C,TP8*%
X33020000Y-50800000D03*
%TD*%
%TO.C,TP7*%
X33020000Y-45720000D03*
%TD*%
%TO.C,TP6*%
X33020000Y-53340000D03*
%TD*%
%TO.C,TP5*%
X33020000Y-35560000D03*
%TD*%
%TO.C,TP4*%
X33020000Y-48260000D03*
%TD*%
%TO.C,TP3*%
X33020000Y-43180000D03*
%TD*%
%TO.C,TP2*%
X33020000Y-40640000D03*
%TD*%
%TO.C,TP1*%
X33020000Y-38100000D03*
%TD*%
D12*
%TO.C,U1*%
X70500000Y-47625000D03*
D13*
X73040000Y-47625000D03*
X75580000Y-47625000D03*
X78120000Y-47625000D03*
X80660000Y-47625000D03*
X83200000Y-47625000D03*
X85740000Y-47625000D03*
X88280000Y-47625000D03*
X90820000Y-47625000D03*
X93360000Y-47625000D03*
X93360000Y-40005000D03*
X90820000Y-40005000D03*
X88280000Y-40005000D03*
X85740000Y-40005000D03*
X83200000Y-40005000D03*
X80660000Y-40005000D03*
X78120000Y-40005000D03*
X75580000Y-40005000D03*
X73040000Y-40005000D03*
X70500000Y-40005000D03*
%TD*%
D12*
%TO.C,D1*%
X66675000Y-45720000D03*
D13*
X66675000Y-53340000D03*
%TD*%
D14*
%TO.C,C2*%
X31750000Y-55880000D03*
X31750000Y-58380000D03*
%TD*%
%TO.C,C1*%
X73000000Y-36830000D03*
X70500000Y-36830000D03*
%TD*%
D12*
%TO.C,D2*%
X64135000Y-45720000D03*
D13*
X64135000Y-53340000D03*
%TD*%
D14*
%TO.C,C4*%
X102845000Y-36830000D03*
X100345000Y-36830000D03*
%TD*%
%TO.C,C3*%
X83780000Y-57785000D03*
X81280000Y-57785000D03*
%TD*%
D12*
%TO.C,C5*%
X74359888Y-73660000D03*
D14*
X76859888Y-73660000D03*
%TD*%
D15*
%TO.C,R1*%
X66675000Y-43180000D03*
D16*
X66675000Y-35560000D03*
%TD*%
D12*
%TO.C,U2*%
X100345000Y-47615000D03*
D13*
X102885000Y-47615000D03*
X105425000Y-47615000D03*
X107965000Y-47615000D03*
X110505000Y-47615000D03*
X113045000Y-47615000D03*
X115585000Y-47615000D03*
X118125000Y-47615000D03*
X118125000Y-39995000D03*
X115585000Y-39995000D03*
X113045000Y-39995000D03*
X110505000Y-39995000D03*
X107965000Y-39995000D03*
X105425000Y-39995000D03*
X102885000Y-39995000D03*
X100345000Y-39995000D03*
%TD*%
D12*
%TO.C,U4*%
X81280000Y-76200000D03*
D13*
X83820000Y-76200000D03*
X86360000Y-76200000D03*
X88900000Y-76200000D03*
X91440000Y-76200000D03*
X93980000Y-76200000D03*
X96520000Y-76200000D03*
X99060000Y-76200000D03*
X101600000Y-76200000D03*
X104140000Y-76200000D03*
X106680000Y-76200000D03*
X109220000Y-76200000D03*
X111760000Y-76200000D03*
X114300000Y-76200000D03*
X114300000Y-60960000D03*
X111760000Y-60960000D03*
X109220000Y-60960000D03*
X106680000Y-60960000D03*
X104140000Y-60960000D03*
X101600000Y-60960000D03*
X99060000Y-60960000D03*
X96520000Y-60960000D03*
X93980000Y-60960000D03*
X91440000Y-60960000D03*
X88900000Y-60960000D03*
X86360000Y-60960000D03*
X83820000Y-60960000D03*
X81280000Y-60960000D03*
%TD*%
D12*
%TO.C,U5*%
X32385000Y-76200000D03*
D13*
X34925000Y-76200000D03*
X37465000Y-76200000D03*
X40005000Y-76200000D03*
X42545000Y-76200000D03*
X45085000Y-76200000D03*
X47625000Y-76200000D03*
X50165000Y-76200000D03*
X52705000Y-76200000D03*
X55245000Y-76200000D03*
X57785000Y-76200000D03*
X60325000Y-76200000D03*
X62865000Y-76200000D03*
X65405000Y-76200000D03*
X67945000Y-76200000D03*
X70485000Y-76200000D03*
X70485000Y-60960000D03*
X67945000Y-60960000D03*
X65405000Y-60960000D03*
X62865000Y-60960000D03*
X60325000Y-60960000D03*
X57785000Y-60960000D03*
X55245000Y-60960000D03*
X52705000Y-60960000D03*
X50165000Y-60960000D03*
X47625000Y-60960000D03*
X45085000Y-60960000D03*
X42545000Y-60960000D03*
X40005000Y-60960000D03*
X37465000Y-60960000D03*
X34925000Y-60960000D03*
X32385000Y-60960000D03*
%TD*%
D17*
%TO.C,JP3*%
X110490000Y-43210000D03*
D18*
X110490000Y-41910000D03*
%TD*%
D17*
%TO.C,JP1*%
X115570000Y-43180000D03*
D18*
X115570000Y-41880000D03*
%TD*%
D19*
%TO.C,JP8*%
X82550000Y-79375000D03*
D20*
X83850000Y-79375000D03*
%TD*%
D21*
%TO.C,JP6*%
X81280000Y-71090000D03*
D22*
X81280000Y-72390000D03*
%TD*%
D17*
%TO.C,JP2*%
X113030000Y-43195000D03*
D18*
X113030000Y-41895000D03*
%TD*%
D17*
%TO.C,JP4*%
X107950000Y-43210000D03*
D18*
X107950000Y-41910000D03*
%TD*%
D19*
%TO.C,JP7*%
X101585000Y-57444400D03*
D20*
X102885000Y-57444400D03*
%TD*%
D17*
%TO.C,JP5*%
X86360000Y-64800000D03*
D18*
X86360000Y-63500000D03*
%TD*%
M02*
