%TF.GenerationSoftware,KiCad,Pcbnew,9.0.0*%
%TF.CreationDate,2025-05-09T14:52:43+01:00*%
%TF.ProjectId,v0b,7630622e-6b69-4636-9164-5f7063625858,rev?*%
%TF.SameCoordinates,Original*%
%TF.FileFunction,Legend,Bot*%
%TF.FilePolarity,Positive*%
%FSLAX46Y46*%
G04 Gerber Fmt 4.6, Leading zero omitted, Abs format (unit mm)*
G04 Created by KiCad (PCBNEW 9.0.0) date 2025-05-09 14:52:43*
%MOMM*%
%LPD*%
G01*
G04 APERTURE LIST*
%ADD10C,0.150000*%
%ADD11C,0.120000*%
G04 APERTURE END LIST*
D10*
X113150476Y-80734819D02*
X113302857Y-80734819D01*
X113302857Y-80734819D02*
X113384999Y-80782438D01*
X113384999Y-80782438D02*
X113429047Y-80830057D01*
X113429047Y-80830057D02*
X113523095Y-80972914D01*
X113523095Y-80972914D02*
X113584999Y-81163390D01*
X113584999Y-81163390D02*
X113632618Y-81544342D01*
X113632618Y-81544342D02*
X113606428Y-81639580D01*
X113606428Y-81639580D02*
X113574285Y-81687200D01*
X113574285Y-81687200D02*
X113504047Y-81734819D01*
X113504047Y-81734819D02*
X113351666Y-81734819D01*
X113351666Y-81734819D02*
X113269523Y-81687200D01*
X113269523Y-81687200D02*
X113225476Y-81639580D01*
X113225476Y-81639580D02*
X113175476Y-81544342D01*
X113175476Y-81544342D02*
X113145714Y-81306247D01*
X113145714Y-81306247D02*
X113171904Y-81211009D01*
X113171904Y-81211009D02*
X113204047Y-81163390D01*
X113204047Y-81163390D02*
X113274285Y-81115771D01*
X113274285Y-81115771D02*
X113426666Y-81115771D01*
X113426666Y-81115771D02*
X113508809Y-81163390D01*
X113508809Y-81163390D02*
X113552857Y-81211009D01*
X113552857Y-81211009D02*
X113602857Y-81306247D01*
X112579047Y-80734819D02*
X112502856Y-80734819D01*
X112502856Y-80734819D02*
X112432618Y-80782438D01*
X112432618Y-80782438D02*
X112400475Y-80830057D01*
X112400475Y-80830057D02*
X112374285Y-80925295D01*
X112374285Y-80925295D02*
X112359999Y-81115771D01*
X112359999Y-81115771D02*
X112389761Y-81353866D01*
X112389761Y-81353866D02*
X112451666Y-81544342D01*
X112451666Y-81544342D02*
X112501666Y-81639580D01*
X112501666Y-81639580D02*
X112545713Y-81687200D01*
X112545713Y-81687200D02*
X112627856Y-81734819D01*
X112627856Y-81734819D02*
X112704047Y-81734819D01*
X112704047Y-81734819D02*
X112774285Y-81687200D01*
X112774285Y-81687200D02*
X112806428Y-81639580D01*
X112806428Y-81639580D02*
X112832618Y-81544342D01*
X112832618Y-81544342D02*
X112846904Y-81353866D01*
X112846904Y-81353866D02*
X112817142Y-81115771D01*
X112817142Y-81115771D02*
X112755237Y-80925295D01*
X112755237Y-80925295D02*
X112705237Y-80830057D01*
X112705237Y-80830057D02*
X112661190Y-80782438D01*
X112661190Y-80782438D02*
X112579047Y-80734819D01*
X38893523Y-80734819D02*
X38398285Y-80734819D01*
X38398285Y-80734819D02*
X38712571Y-81115771D01*
X38712571Y-81115771D02*
X38598285Y-81115771D01*
X38598285Y-81115771D02*
X38528047Y-81163390D01*
X38528047Y-81163390D02*
X38495904Y-81211009D01*
X38495904Y-81211009D02*
X38469714Y-81306247D01*
X38469714Y-81306247D02*
X38499476Y-81544342D01*
X38499476Y-81544342D02*
X38549476Y-81639580D01*
X38549476Y-81639580D02*
X38593523Y-81687200D01*
X38593523Y-81687200D02*
X38675666Y-81734819D01*
X38675666Y-81734819D02*
X38904237Y-81734819D01*
X38904237Y-81734819D02*
X38974476Y-81687200D01*
X38974476Y-81687200D02*
X39006618Y-81639580D01*
X37761380Y-81734819D02*
X38218523Y-81734819D01*
X37989952Y-81734819D02*
X37864952Y-80734819D01*
X37864952Y-80734819D02*
X37958999Y-80877676D01*
X37958999Y-80877676D02*
X38047094Y-80972914D01*
X38047094Y-80972914D02*
X38129237Y-81020533D01*
D11*
%TO.C,JP3*%
X109490000Y-41860000D02*
X109490000Y-43260000D01*
X110190000Y-43960000D02*
X110790000Y-43960000D01*
X110790000Y-41160000D02*
X110190000Y-41160000D01*
X111490000Y-43260000D02*
X111490000Y-41860000D01*
X109490000Y-41860000D02*
G75*
G02*
X110190000Y-41160000I700000J0D01*
G01*
X110190000Y-43960000D02*
G75*
G02*
X109490000Y-43260000I-1J699999D01*
G01*
X110790000Y-41160000D02*
G75*
G02*
X111490000Y-41860000I0J-700000D01*
G01*
X111490000Y-43260000D02*
G75*
G02*
X110790000Y-43960000I-699999J-1D01*
G01*
%TO.C,JP1*%
X114570000Y-41830000D02*
X114570000Y-43230000D01*
X115270000Y-43930000D02*
X115870000Y-43930000D01*
X115870000Y-41130000D02*
X115270000Y-41130000D01*
X116570000Y-43230000D02*
X116570000Y-41830000D01*
X114570000Y-41830000D02*
G75*
G02*
X115270000Y-41130000I700000J0D01*
G01*
X115270000Y-43930000D02*
G75*
G02*
X114570000Y-43230000I-1J699999D01*
G01*
X115870000Y-41130000D02*
G75*
G02*
X116570000Y-41830000I0J-700000D01*
G01*
X116570000Y-43230000D02*
G75*
G02*
X115870000Y-43930000I-699999J-1D01*
G01*
%TO.C,JP8*%
X81800000Y-79075000D02*
X81800000Y-79675000D01*
X82500000Y-80375000D02*
X83900000Y-80375000D01*
X83900000Y-78375000D02*
X82500000Y-78375000D01*
X84600000Y-79675000D02*
X84600000Y-79075000D01*
X81800000Y-79075000D02*
G75*
G02*
X82500000Y-78375000I699999J1D01*
G01*
X82500000Y-80375000D02*
G75*
G02*
X81800000Y-79675000I-1J699999D01*
G01*
X83900000Y-78375000D02*
G75*
G02*
X84600000Y-79075000I0J-700000D01*
G01*
X84600000Y-79675000D02*
G75*
G02*
X83900000Y-80375000I-700000J0D01*
G01*
%TO.C,JP6*%
X80280000Y-71040000D02*
X80280000Y-72440000D01*
X80980000Y-73140000D02*
X81580000Y-73140000D01*
X81580000Y-70340000D02*
X80980000Y-70340000D01*
X82280000Y-72440000D02*
X82280000Y-71040000D01*
X80280000Y-71040000D02*
G75*
G02*
X80980000Y-70340000I699999J1D01*
G01*
X80980000Y-73140000D02*
G75*
G02*
X80280000Y-72440000I0J700000D01*
G01*
X81580000Y-70340000D02*
G75*
G02*
X82280000Y-71040000I1J-699999D01*
G01*
X82280000Y-72440000D02*
G75*
G02*
X81580000Y-73140000I-700000J0D01*
G01*
%TO.C,JP2*%
X112030000Y-41845000D02*
X112030000Y-43245000D01*
X112730000Y-43945000D02*
X113330000Y-43945000D01*
X113330000Y-41145000D02*
X112730000Y-41145000D01*
X114030000Y-43245000D02*
X114030000Y-41845000D01*
X112030000Y-41845000D02*
G75*
G02*
X112730000Y-41145000I700000J0D01*
G01*
X112730000Y-43945000D02*
G75*
G02*
X112030000Y-43245000I-1J699999D01*
G01*
X113330000Y-41145000D02*
G75*
G02*
X114030000Y-41845000I0J-700000D01*
G01*
X114030000Y-43245000D02*
G75*
G02*
X113330000Y-43945000I-699999J-1D01*
G01*
%TO.C,JP4*%
X106950000Y-41860000D02*
X106950000Y-43260000D01*
X107650000Y-43960000D02*
X108250000Y-43960000D01*
X108250000Y-41160000D02*
X107650000Y-41160000D01*
X108950000Y-43260000D02*
X108950000Y-41860000D01*
X106950000Y-41860000D02*
G75*
G02*
X107650000Y-41160000I700000J0D01*
G01*
X107650000Y-43960000D02*
G75*
G02*
X106950000Y-43260000I-1J699999D01*
G01*
X108250000Y-41160000D02*
G75*
G02*
X108950000Y-41860000I0J-700000D01*
G01*
X108950000Y-43260000D02*
G75*
G02*
X108250000Y-43960000I-699999J-1D01*
G01*
%TO.C,JP7*%
X100835000Y-57144400D02*
X100835000Y-57744400D01*
X101535000Y-58444400D02*
X102935000Y-58444400D01*
X102935000Y-56444400D02*
X101535000Y-56444400D01*
X103635000Y-57744400D02*
X103635000Y-57144400D01*
X100835000Y-57144400D02*
G75*
G02*
X101535000Y-56444400I699999J1D01*
G01*
X101535000Y-58444400D02*
G75*
G02*
X100835000Y-57744400I-1J699999D01*
G01*
X102935000Y-56444400D02*
G75*
G02*
X103635000Y-57144400I0J-700000D01*
G01*
X103635000Y-57744400D02*
G75*
G02*
X102935000Y-58444400I-700000J0D01*
G01*
%TO.C,JP5*%
X85360000Y-63450000D02*
X85360000Y-64850000D01*
X86060000Y-65550000D02*
X86660000Y-65550000D01*
X86660000Y-62750000D02*
X86060000Y-62750000D01*
X87360000Y-64850000D02*
X87360000Y-63450000D01*
X85360000Y-63450000D02*
G75*
G02*
X86060000Y-62750000I700000J0D01*
G01*
X86060000Y-65550000D02*
G75*
G02*
X85360000Y-64850000I-1J699999D01*
G01*
X86660000Y-62750000D02*
G75*
G02*
X87360000Y-63450000I0J-700000D01*
G01*
X87360000Y-64850000D02*
G75*
G02*
X86660000Y-65550000I-699999J-1D01*
G01*
%TD*%
M02*
