%TF.GenerationSoftware,KiCad,Pcbnew,9.0.0*%
%TF.CreationDate,2025-05-09T14:52:42+01:00*%
%TF.ProjectId,v0b,7630622e-6b69-4636-9164-5f7063625858,rev?*%
%TF.SameCoordinates,Original*%
%TF.FileFunction,Paste,Top*%
%TF.FilePolarity,Positive*%
%FSLAX46Y46*%
G04 Gerber Fmt 4.6, Leading zero omitted, Abs format (unit mm)*
G04 Created by KiCad (PCBNEW 9.0.0) date 2025-05-09 14:52:42*
%MOMM*%
%LPD*%
G01*
G04 APERTURE LIST*
G04 Aperture macros list*
%AMRoundRect*
0 Rectangle with rounded corners*
0 $1 Rounding radius*
0 $2 $3 $4 $5 $6 $7 $8 $9 X,Y pos of 4 corners*
0 Add a 4 corners polygon primitive as box body*
4,1,4,$2,$3,$4,$5,$6,$7,$8,$9,$2,$3,0*
0 Add four circle primitives for the rounded corners*
1,1,$1+$1,$2,$3*
1,1,$1+$1,$4,$5*
1,1,$1+$1,$6,$7*
1,1,$1+$1,$8,$9*
0 Add four rect primitives between the rounded corners*
20,1,$1+$1,$2,$3,$4,$5,0*
20,1,$1+$1,$4,$5,$6,$7,0*
20,1,$1+$1,$6,$7,$8,$9,0*
20,1,$1+$1,$8,$9,$2,$3,0*%
G04 Aperture macros list end*
%ADD10RoundRect,0.150000X0.587500X-0.150000X0.587500X0.150000X-0.587500X0.150000X-0.587500X-0.150000X0*%
%ADD11RoundRect,0.150000X0.150000X-0.587500X0.150000X0.587500X-0.150000X0.587500X-0.150000X-0.587500X0*%
G04 APERTURE END LIST*
D10*
%TO.C,U6*%
X91587500Y-68580000D03*
X91587500Y-69850000D03*
X91587500Y-71120000D03*
X91587500Y-72390000D03*
D11*
X93345000Y-74142500D03*
X94615000Y-74142500D03*
X95885000Y-74142500D03*
X97155000Y-74142500D03*
X98425000Y-74142500D03*
X99695000Y-74142500D03*
X100965000Y-74142500D03*
X102235000Y-74142500D03*
X103505000Y-74142500D03*
D10*
X105262500Y-72390000D03*
X105262500Y-71120000D03*
X105262500Y-69850000D03*
X105262500Y-68580000D03*
X105262500Y-67310000D03*
X105262500Y-66040000D03*
X105262500Y-64770000D03*
D11*
X103505000Y-63017500D03*
X102235000Y-63017500D03*
X100965000Y-63017500D03*
X99695000Y-63017500D03*
X98425000Y-63017500D03*
X97155000Y-63017500D03*
X95885000Y-63017500D03*
X94615000Y-63017500D03*
X93345000Y-63017500D03*
D10*
X91587500Y-64770000D03*
X91587500Y-66040000D03*
X91587500Y-67310000D03*
%TD*%
%TO.C,U3*%
X47137500Y-68580000D03*
X47137500Y-69850000D03*
X47137500Y-71120000D03*
X47137500Y-72390000D03*
D11*
X48895000Y-74142500D03*
X50165000Y-74142500D03*
X51435000Y-74142500D03*
X52705000Y-74142500D03*
X53975000Y-74142500D03*
X55245000Y-74142500D03*
X56515000Y-74142500D03*
X57785000Y-74142500D03*
X59055000Y-74142500D03*
D10*
X60812500Y-72390000D03*
X60812500Y-71120000D03*
X60812500Y-69850000D03*
X60812500Y-68580000D03*
X60812500Y-67310000D03*
X60812500Y-66040000D03*
X60812500Y-64770000D03*
D11*
X59055000Y-63017500D03*
X57785000Y-63017500D03*
X56515000Y-63017500D03*
X55245000Y-63017500D03*
X53975000Y-63017500D03*
X52705000Y-63017500D03*
X51435000Y-63017500D03*
X50165000Y-63017500D03*
X48895000Y-63017500D03*
D10*
X47137500Y-64770000D03*
X47137500Y-66040000D03*
X47137500Y-67310000D03*
%TD*%
M02*
