%TF.GenerationSoftware,KiCad,Pcbnew,9.0.0*%
%TF.CreationDate,2025-05-09T14:52:44+01:00*%
%TF.ProjectId,v0b,7630622e-6b69-4636-9164-5f7063625858,rev?*%
%TF.SameCoordinates,Original*%
%TF.FileFunction,AssemblyDrawing,Top*%
%FSLAX46Y46*%
G04 Gerber Fmt 4.6, Leading zero omitted, Abs format (unit mm)*
G04 Created by KiCad (PCBNEW 9.0.0) date 2025-05-09 14:52:44*
%MOMM*%
%LPD*%
G01*
G04 APERTURE LIST*
%ADD10C,0.150000*%
%ADD11C,0.120000*%
%ADD12C,0.090000*%
%ADD13C,0.108000*%
%ADD14C,0.100000*%
%ADD15C,0.431000*%
%ADD16C,0.300000*%
G04 APERTURE END LIST*
D10*
X81384819Y-44576904D02*
X82194342Y-44576904D01*
X82194342Y-44576904D02*
X82289580Y-44529285D01*
X82289580Y-44529285D02*
X82337200Y-44481666D01*
X82337200Y-44481666D02*
X82384819Y-44386428D01*
X82384819Y-44386428D02*
X82384819Y-44195952D01*
X82384819Y-44195952D02*
X82337200Y-44100714D01*
X82337200Y-44100714D02*
X82289580Y-44053095D01*
X82289580Y-44053095D02*
X82194342Y-44005476D01*
X82194342Y-44005476D02*
X81384819Y-44005476D01*
X82384819Y-43005476D02*
X82384819Y-43576904D01*
X82384819Y-43291190D02*
X81384819Y-43291190D01*
X81384819Y-43291190D02*
X81527676Y-43386428D01*
X81527676Y-43386428D02*
X81622914Y-43481666D01*
X81622914Y-43481666D02*
X81670533Y-43576904D01*
X68929819Y-45981904D02*
X67929819Y-45981904D01*
X68929819Y-45410476D02*
X68358390Y-45839047D01*
X67929819Y-45410476D02*
X68501247Y-45981904D01*
D11*
X67038855Y-50420475D02*
X66238855Y-50420475D01*
X66238855Y-50420475D02*
X66238855Y-50229999D01*
X66238855Y-50229999D02*
X66276950Y-50115713D01*
X66276950Y-50115713D02*
X66353140Y-50039523D01*
X66353140Y-50039523D02*
X66429331Y-50001428D01*
X66429331Y-50001428D02*
X66581712Y-49963332D01*
X66581712Y-49963332D02*
X66695998Y-49963332D01*
X66695998Y-49963332D02*
X66848379Y-50001428D01*
X66848379Y-50001428D02*
X66924569Y-50039523D01*
X66924569Y-50039523D02*
X67000760Y-50115713D01*
X67000760Y-50115713D02*
X67038855Y-50229999D01*
X67038855Y-50229999D02*
X67038855Y-50420475D01*
X67038855Y-49201428D02*
X67038855Y-49658571D01*
X67038855Y-49429999D02*
X66238855Y-49429999D01*
X66238855Y-49429999D02*
X66353140Y-49506190D01*
X66353140Y-49506190D02*
X66429331Y-49582380D01*
X66429331Y-49582380D02*
X66467426Y-49658571D01*
D10*
X30059580Y-59320476D02*
X30107200Y-59368095D01*
X30107200Y-59368095D02*
X30154819Y-59510952D01*
X30154819Y-59510952D02*
X30154819Y-59606190D01*
X30154819Y-59606190D02*
X30107200Y-59749047D01*
X30107200Y-59749047D02*
X30011961Y-59844285D01*
X30011961Y-59844285D02*
X29916723Y-59891904D01*
X29916723Y-59891904D02*
X29726247Y-59939523D01*
X29726247Y-59939523D02*
X29583390Y-59939523D01*
X29583390Y-59939523D02*
X29392914Y-59891904D01*
X29392914Y-59891904D02*
X29297676Y-59844285D01*
X29297676Y-59844285D02*
X29202438Y-59749047D01*
X29202438Y-59749047D02*
X29154819Y-59606190D01*
X29154819Y-59606190D02*
X29154819Y-59510952D01*
X29154819Y-59510952D02*
X29202438Y-59368095D01*
X29202438Y-59368095D02*
X29250057Y-59320476D01*
X30250057Y-59130000D02*
X30250057Y-58368095D01*
X30107200Y-58177618D02*
X30154819Y-58034761D01*
X30154819Y-58034761D02*
X30154819Y-57796666D01*
X30154819Y-57796666D02*
X30107200Y-57701428D01*
X30107200Y-57701428D02*
X30059580Y-57653809D01*
X30059580Y-57653809D02*
X29964342Y-57606190D01*
X29964342Y-57606190D02*
X29869104Y-57606190D01*
X29869104Y-57606190D02*
X29773866Y-57653809D01*
X29773866Y-57653809D02*
X29726247Y-57701428D01*
X29726247Y-57701428D02*
X29678628Y-57796666D01*
X29678628Y-57796666D02*
X29631009Y-57987142D01*
X29631009Y-57987142D02*
X29583390Y-58082380D01*
X29583390Y-58082380D02*
X29535771Y-58129999D01*
X29535771Y-58129999D02*
X29440533Y-58177618D01*
X29440533Y-58177618D02*
X29345295Y-58177618D01*
X29345295Y-58177618D02*
X29250057Y-58129999D01*
X29250057Y-58129999D02*
X29202438Y-58082380D01*
X29202438Y-58082380D02*
X29154819Y-57987142D01*
X29154819Y-57987142D02*
X29154819Y-57749047D01*
X29154819Y-57749047D02*
X29202438Y-57606190D01*
X30154819Y-57177618D02*
X29488152Y-57177618D01*
X29583390Y-57177618D02*
X29535771Y-57129999D01*
X29535771Y-57129999D02*
X29488152Y-57034761D01*
X29488152Y-57034761D02*
X29488152Y-56891904D01*
X29488152Y-56891904D02*
X29535771Y-56796666D01*
X29535771Y-56796666D02*
X29631009Y-56749047D01*
X29631009Y-56749047D02*
X30154819Y-56749047D01*
X29631009Y-56749047D02*
X29535771Y-56701428D01*
X29535771Y-56701428D02*
X29488152Y-56606190D01*
X29488152Y-56606190D02*
X29488152Y-56463333D01*
X29488152Y-56463333D02*
X29535771Y-56368094D01*
X29535771Y-56368094D02*
X29631009Y-56320475D01*
X29631009Y-56320475D02*
X30154819Y-56320475D01*
X30154819Y-55415714D02*
X29631009Y-55415714D01*
X29631009Y-55415714D02*
X29535771Y-55463333D01*
X29535771Y-55463333D02*
X29488152Y-55558571D01*
X29488152Y-55558571D02*
X29488152Y-55749047D01*
X29488152Y-55749047D02*
X29535771Y-55844285D01*
X30107200Y-55415714D02*
X30154819Y-55510952D01*
X30154819Y-55510952D02*
X30154819Y-55749047D01*
X30154819Y-55749047D02*
X30107200Y-55844285D01*
X30107200Y-55844285D02*
X30011961Y-55891904D01*
X30011961Y-55891904D02*
X29916723Y-55891904D01*
X29916723Y-55891904D02*
X29821485Y-55844285D01*
X29821485Y-55844285D02*
X29773866Y-55749047D01*
X29773866Y-55749047D02*
X29773866Y-55510952D01*
X29773866Y-55510952D02*
X29726247Y-55415714D01*
X30154819Y-54796666D02*
X30107200Y-54891904D01*
X30107200Y-54891904D02*
X30011961Y-54939523D01*
X30011961Y-54939523D02*
X29154819Y-54939523D01*
X30154819Y-54272856D02*
X30107200Y-54368094D01*
X30107200Y-54368094D02*
X30011961Y-54415713D01*
X30011961Y-54415713D02*
X29154819Y-54415713D01*
D12*
X31965748Y-57229999D02*
X31994320Y-57258571D01*
X31994320Y-57258571D02*
X32022891Y-57344285D01*
X32022891Y-57344285D02*
X32022891Y-57401428D01*
X32022891Y-57401428D02*
X31994320Y-57487142D01*
X31994320Y-57487142D02*
X31937177Y-57544285D01*
X31937177Y-57544285D02*
X31880034Y-57572856D01*
X31880034Y-57572856D02*
X31765748Y-57601428D01*
X31765748Y-57601428D02*
X31680034Y-57601428D01*
X31680034Y-57601428D02*
X31565748Y-57572856D01*
X31565748Y-57572856D02*
X31508605Y-57544285D01*
X31508605Y-57544285D02*
X31451462Y-57487142D01*
X31451462Y-57487142D02*
X31422891Y-57401428D01*
X31422891Y-57401428D02*
X31422891Y-57344285D01*
X31422891Y-57344285D02*
X31451462Y-57258571D01*
X31451462Y-57258571D02*
X31480034Y-57229999D01*
X31480034Y-57001428D02*
X31451462Y-56972856D01*
X31451462Y-56972856D02*
X31422891Y-56915714D01*
X31422891Y-56915714D02*
X31422891Y-56772856D01*
X31422891Y-56772856D02*
X31451462Y-56715714D01*
X31451462Y-56715714D02*
X31480034Y-56687142D01*
X31480034Y-56687142D02*
X31537177Y-56658571D01*
X31537177Y-56658571D02*
X31594320Y-56658571D01*
X31594320Y-56658571D02*
X31680034Y-56687142D01*
X31680034Y-56687142D02*
X32022891Y-57029999D01*
X32022891Y-57029999D02*
X32022891Y-56658571D01*
D10*
X97879819Y-69341904D02*
X98689342Y-69341904D01*
X98689342Y-69341904D02*
X98784580Y-69294285D01*
X98784580Y-69294285D02*
X98832200Y-69246666D01*
X98832200Y-69246666D02*
X98879819Y-69151428D01*
X98879819Y-69151428D02*
X98879819Y-68960952D01*
X98879819Y-68960952D02*
X98832200Y-68865714D01*
X98832200Y-68865714D02*
X98784580Y-68818095D01*
X98784580Y-68818095D02*
X98689342Y-68770476D01*
X98689342Y-68770476D02*
X97879819Y-68770476D01*
X97879819Y-67865714D02*
X97879819Y-68056190D01*
X97879819Y-68056190D02*
X97927438Y-68151428D01*
X97927438Y-68151428D02*
X97975057Y-68199047D01*
X97975057Y-68199047D02*
X98117914Y-68294285D01*
X98117914Y-68294285D02*
X98308390Y-68341904D01*
X98308390Y-68341904D02*
X98689342Y-68341904D01*
X98689342Y-68341904D02*
X98784580Y-68294285D01*
X98784580Y-68294285D02*
X98832200Y-68246666D01*
X98832200Y-68246666D02*
X98879819Y-68151428D01*
X98879819Y-68151428D02*
X98879819Y-67960952D01*
X98879819Y-67960952D02*
X98832200Y-67865714D01*
X98832200Y-67865714D02*
X98784580Y-67818095D01*
X98784580Y-67818095D02*
X98689342Y-67770476D01*
X98689342Y-67770476D02*
X98451247Y-67770476D01*
X98451247Y-67770476D02*
X98356009Y-67818095D01*
X98356009Y-67818095D02*
X98308390Y-67865714D01*
X98308390Y-67865714D02*
X98260771Y-67960952D01*
X98260771Y-67960952D02*
X98260771Y-68151428D01*
X98260771Y-68151428D02*
X98308390Y-68246666D01*
X98308390Y-68246666D02*
X98356009Y-68294285D01*
X98356009Y-68294285D02*
X98451247Y-68341904D01*
X69559523Y-35139580D02*
X69511904Y-35187200D01*
X69511904Y-35187200D02*
X69369047Y-35234819D01*
X69369047Y-35234819D02*
X69273809Y-35234819D01*
X69273809Y-35234819D02*
X69130952Y-35187200D01*
X69130952Y-35187200D02*
X69035714Y-35091961D01*
X69035714Y-35091961D02*
X68988095Y-34996723D01*
X68988095Y-34996723D02*
X68940476Y-34806247D01*
X68940476Y-34806247D02*
X68940476Y-34663390D01*
X68940476Y-34663390D02*
X68988095Y-34472914D01*
X68988095Y-34472914D02*
X69035714Y-34377676D01*
X69035714Y-34377676D02*
X69130952Y-34282438D01*
X69130952Y-34282438D02*
X69273809Y-34234819D01*
X69273809Y-34234819D02*
X69369047Y-34234819D01*
X69369047Y-34234819D02*
X69511904Y-34282438D01*
X69511904Y-34282438D02*
X69559523Y-34330057D01*
X69750000Y-35330057D02*
X70511904Y-35330057D01*
X70702381Y-35187200D02*
X70845238Y-35234819D01*
X70845238Y-35234819D02*
X71083333Y-35234819D01*
X71083333Y-35234819D02*
X71178571Y-35187200D01*
X71178571Y-35187200D02*
X71226190Y-35139580D01*
X71226190Y-35139580D02*
X71273809Y-35044342D01*
X71273809Y-35044342D02*
X71273809Y-34949104D01*
X71273809Y-34949104D02*
X71226190Y-34853866D01*
X71226190Y-34853866D02*
X71178571Y-34806247D01*
X71178571Y-34806247D02*
X71083333Y-34758628D01*
X71083333Y-34758628D02*
X70892857Y-34711009D01*
X70892857Y-34711009D02*
X70797619Y-34663390D01*
X70797619Y-34663390D02*
X70750000Y-34615771D01*
X70750000Y-34615771D02*
X70702381Y-34520533D01*
X70702381Y-34520533D02*
X70702381Y-34425295D01*
X70702381Y-34425295D02*
X70750000Y-34330057D01*
X70750000Y-34330057D02*
X70797619Y-34282438D01*
X70797619Y-34282438D02*
X70892857Y-34234819D01*
X70892857Y-34234819D02*
X71130952Y-34234819D01*
X71130952Y-34234819D02*
X71273809Y-34282438D01*
X71702381Y-35234819D02*
X71702381Y-34568152D01*
X71702381Y-34663390D02*
X71750000Y-34615771D01*
X71750000Y-34615771D02*
X71845238Y-34568152D01*
X71845238Y-34568152D02*
X71988095Y-34568152D01*
X71988095Y-34568152D02*
X72083333Y-34615771D01*
X72083333Y-34615771D02*
X72130952Y-34711009D01*
X72130952Y-34711009D02*
X72130952Y-35234819D01*
X72130952Y-34711009D02*
X72178571Y-34615771D01*
X72178571Y-34615771D02*
X72273809Y-34568152D01*
X72273809Y-34568152D02*
X72416666Y-34568152D01*
X72416666Y-34568152D02*
X72511905Y-34615771D01*
X72511905Y-34615771D02*
X72559524Y-34711009D01*
X72559524Y-34711009D02*
X72559524Y-35234819D01*
X73464285Y-35234819D02*
X73464285Y-34711009D01*
X73464285Y-34711009D02*
X73416666Y-34615771D01*
X73416666Y-34615771D02*
X73321428Y-34568152D01*
X73321428Y-34568152D02*
X73130952Y-34568152D01*
X73130952Y-34568152D02*
X73035714Y-34615771D01*
X73464285Y-35187200D02*
X73369047Y-35234819D01*
X73369047Y-35234819D02*
X73130952Y-35234819D01*
X73130952Y-35234819D02*
X73035714Y-35187200D01*
X73035714Y-35187200D02*
X72988095Y-35091961D01*
X72988095Y-35091961D02*
X72988095Y-34996723D01*
X72988095Y-34996723D02*
X73035714Y-34901485D01*
X73035714Y-34901485D02*
X73130952Y-34853866D01*
X73130952Y-34853866D02*
X73369047Y-34853866D01*
X73369047Y-34853866D02*
X73464285Y-34806247D01*
X74083333Y-35234819D02*
X73988095Y-35187200D01*
X73988095Y-35187200D02*
X73940476Y-35091961D01*
X73940476Y-35091961D02*
X73940476Y-34234819D01*
X74607143Y-35234819D02*
X74511905Y-35187200D01*
X74511905Y-35187200D02*
X74464286Y-35091961D01*
X74464286Y-35091961D02*
X74464286Y-34234819D01*
D11*
X64498855Y-50420475D02*
X63698855Y-50420475D01*
X63698855Y-50420475D02*
X63698855Y-50229999D01*
X63698855Y-50229999D02*
X63736950Y-50115713D01*
X63736950Y-50115713D02*
X63813140Y-50039523D01*
X63813140Y-50039523D02*
X63889331Y-50001428D01*
X63889331Y-50001428D02*
X64041712Y-49963332D01*
X64041712Y-49963332D02*
X64155998Y-49963332D01*
X64155998Y-49963332D02*
X64308379Y-50001428D01*
X64308379Y-50001428D02*
X64384569Y-50039523D01*
X64384569Y-50039523D02*
X64460760Y-50115713D01*
X64460760Y-50115713D02*
X64498855Y-50229999D01*
X64498855Y-50229999D02*
X64498855Y-50420475D01*
X63775045Y-49658571D02*
X63736950Y-49620475D01*
X63736950Y-49620475D02*
X63698855Y-49544285D01*
X63698855Y-49544285D02*
X63698855Y-49353809D01*
X63698855Y-49353809D02*
X63736950Y-49277618D01*
X63736950Y-49277618D02*
X63775045Y-49239523D01*
X63775045Y-49239523D02*
X63851236Y-49201428D01*
X63851236Y-49201428D02*
X63927426Y-49201428D01*
X63927426Y-49201428D02*
X64041712Y-49239523D01*
X64041712Y-49239523D02*
X64498855Y-49696666D01*
X64498855Y-49696666D02*
X64498855Y-49201428D01*
D10*
X99404523Y-35139580D02*
X99356904Y-35187200D01*
X99356904Y-35187200D02*
X99214047Y-35234819D01*
X99214047Y-35234819D02*
X99118809Y-35234819D01*
X99118809Y-35234819D02*
X98975952Y-35187200D01*
X98975952Y-35187200D02*
X98880714Y-35091961D01*
X98880714Y-35091961D02*
X98833095Y-34996723D01*
X98833095Y-34996723D02*
X98785476Y-34806247D01*
X98785476Y-34806247D02*
X98785476Y-34663390D01*
X98785476Y-34663390D02*
X98833095Y-34472914D01*
X98833095Y-34472914D02*
X98880714Y-34377676D01*
X98880714Y-34377676D02*
X98975952Y-34282438D01*
X98975952Y-34282438D02*
X99118809Y-34234819D01*
X99118809Y-34234819D02*
X99214047Y-34234819D01*
X99214047Y-34234819D02*
X99356904Y-34282438D01*
X99356904Y-34282438D02*
X99404523Y-34330057D01*
X99595000Y-35330057D02*
X100356904Y-35330057D01*
X100547381Y-35187200D02*
X100690238Y-35234819D01*
X100690238Y-35234819D02*
X100928333Y-35234819D01*
X100928333Y-35234819D02*
X101023571Y-35187200D01*
X101023571Y-35187200D02*
X101071190Y-35139580D01*
X101071190Y-35139580D02*
X101118809Y-35044342D01*
X101118809Y-35044342D02*
X101118809Y-34949104D01*
X101118809Y-34949104D02*
X101071190Y-34853866D01*
X101071190Y-34853866D02*
X101023571Y-34806247D01*
X101023571Y-34806247D02*
X100928333Y-34758628D01*
X100928333Y-34758628D02*
X100737857Y-34711009D01*
X100737857Y-34711009D02*
X100642619Y-34663390D01*
X100642619Y-34663390D02*
X100595000Y-34615771D01*
X100595000Y-34615771D02*
X100547381Y-34520533D01*
X100547381Y-34520533D02*
X100547381Y-34425295D01*
X100547381Y-34425295D02*
X100595000Y-34330057D01*
X100595000Y-34330057D02*
X100642619Y-34282438D01*
X100642619Y-34282438D02*
X100737857Y-34234819D01*
X100737857Y-34234819D02*
X100975952Y-34234819D01*
X100975952Y-34234819D02*
X101118809Y-34282438D01*
X101547381Y-35234819D02*
X101547381Y-34568152D01*
X101547381Y-34663390D02*
X101595000Y-34615771D01*
X101595000Y-34615771D02*
X101690238Y-34568152D01*
X101690238Y-34568152D02*
X101833095Y-34568152D01*
X101833095Y-34568152D02*
X101928333Y-34615771D01*
X101928333Y-34615771D02*
X101975952Y-34711009D01*
X101975952Y-34711009D02*
X101975952Y-35234819D01*
X101975952Y-34711009D02*
X102023571Y-34615771D01*
X102023571Y-34615771D02*
X102118809Y-34568152D01*
X102118809Y-34568152D02*
X102261666Y-34568152D01*
X102261666Y-34568152D02*
X102356905Y-34615771D01*
X102356905Y-34615771D02*
X102404524Y-34711009D01*
X102404524Y-34711009D02*
X102404524Y-35234819D01*
X103309285Y-35234819D02*
X103309285Y-34711009D01*
X103309285Y-34711009D02*
X103261666Y-34615771D01*
X103261666Y-34615771D02*
X103166428Y-34568152D01*
X103166428Y-34568152D02*
X102975952Y-34568152D01*
X102975952Y-34568152D02*
X102880714Y-34615771D01*
X103309285Y-35187200D02*
X103214047Y-35234819D01*
X103214047Y-35234819D02*
X102975952Y-35234819D01*
X102975952Y-35234819D02*
X102880714Y-35187200D01*
X102880714Y-35187200D02*
X102833095Y-35091961D01*
X102833095Y-35091961D02*
X102833095Y-34996723D01*
X102833095Y-34996723D02*
X102880714Y-34901485D01*
X102880714Y-34901485D02*
X102975952Y-34853866D01*
X102975952Y-34853866D02*
X103214047Y-34853866D01*
X103214047Y-34853866D02*
X103309285Y-34806247D01*
X103928333Y-35234819D02*
X103833095Y-35187200D01*
X103833095Y-35187200D02*
X103785476Y-35091961D01*
X103785476Y-35091961D02*
X103785476Y-34234819D01*
X104452143Y-35234819D02*
X104356905Y-35187200D01*
X104356905Y-35187200D02*
X104309286Y-35091961D01*
X104309286Y-35091961D02*
X104309286Y-34234819D01*
D12*
X101495000Y-37045748D02*
X101466428Y-37074320D01*
X101466428Y-37074320D02*
X101380714Y-37102891D01*
X101380714Y-37102891D02*
X101323571Y-37102891D01*
X101323571Y-37102891D02*
X101237857Y-37074320D01*
X101237857Y-37074320D02*
X101180714Y-37017177D01*
X101180714Y-37017177D02*
X101152143Y-36960034D01*
X101152143Y-36960034D02*
X101123571Y-36845748D01*
X101123571Y-36845748D02*
X101123571Y-36760034D01*
X101123571Y-36760034D02*
X101152143Y-36645748D01*
X101152143Y-36645748D02*
X101180714Y-36588605D01*
X101180714Y-36588605D02*
X101237857Y-36531462D01*
X101237857Y-36531462D02*
X101323571Y-36502891D01*
X101323571Y-36502891D02*
X101380714Y-36502891D01*
X101380714Y-36502891D02*
X101466428Y-36531462D01*
X101466428Y-36531462D02*
X101495000Y-36560034D01*
X102009286Y-36702891D02*
X102009286Y-37102891D01*
X101866428Y-36474320D02*
X101723571Y-36902891D01*
X101723571Y-36902891D02*
X102095000Y-36902891D01*
D10*
X80339523Y-56094580D02*
X80291904Y-56142200D01*
X80291904Y-56142200D02*
X80149047Y-56189819D01*
X80149047Y-56189819D02*
X80053809Y-56189819D01*
X80053809Y-56189819D02*
X79910952Y-56142200D01*
X79910952Y-56142200D02*
X79815714Y-56046961D01*
X79815714Y-56046961D02*
X79768095Y-55951723D01*
X79768095Y-55951723D02*
X79720476Y-55761247D01*
X79720476Y-55761247D02*
X79720476Y-55618390D01*
X79720476Y-55618390D02*
X79768095Y-55427914D01*
X79768095Y-55427914D02*
X79815714Y-55332676D01*
X79815714Y-55332676D02*
X79910952Y-55237438D01*
X79910952Y-55237438D02*
X80053809Y-55189819D01*
X80053809Y-55189819D02*
X80149047Y-55189819D01*
X80149047Y-55189819D02*
X80291904Y-55237438D01*
X80291904Y-55237438D02*
X80339523Y-55285057D01*
X80530000Y-56285057D02*
X81291904Y-56285057D01*
X81482381Y-56142200D02*
X81625238Y-56189819D01*
X81625238Y-56189819D02*
X81863333Y-56189819D01*
X81863333Y-56189819D02*
X81958571Y-56142200D01*
X81958571Y-56142200D02*
X82006190Y-56094580D01*
X82006190Y-56094580D02*
X82053809Y-55999342D01*
X82053809Y-55999342D02*
X82053809Y-55904104D01*
X82053809Y-55904104D02*
X82006190Y-55808866D01*
X82006190Y-55808866D02*
X81958571Y-55761247D01*
X81958571Y-55761247D02*
X81863333Y-55713628D01*
X81863333Y-55713628D02*
X81672857Y-55666009D01*
X81672857Y-55666009D02*
X81577619Y-55618390D01*
X81577619Y-55618390D02*
X81530000Y-55570771D01*
X81530000Y-55570771D02*
X81482381Y-55475533D01*
X81482381Y-55475533D02*
X81482381Y-55380295D01*
X81482381Y-55380295D02*
X81530000Y-55285057D01*
X81530000Y-55285057D02*
X81577619Y-55237438D01*
X81577619Y-55237438D02*
X81672857Y-55189819D01*
X81672857Y-55189819D02*
X81910952Y-55189819D01*
X81910952Y-55189819D02*
X82053809Y-55237438D01*
X82482381Y-56189819D02*
X82482381Y-55523152D01*
X82482381Y-55618390D02*
X82530000Y-55570771D01*
X82530000Y-55570771D02*
X82625238Y-55523152D01*
X82625238Y-55523152D02*
X82768095Y-55523152D01*
X82768095Y-55523152D02*
X82863333Y-55570771D01*
X82863333Y-55570771D02*
X82910952Y-55666009D01*
X82910952Y-55666009D02*
X82910952Y-56189819D01*
X82910952Y-55666009D02*
X82958571Y-55570771D01*
X82958571Y-55570771D02*
X83053809Y-55523152D01*
X83053809Y-55523152D02*
X83196666Y-55523152D01*
X83196666Y-55523152D02*
X83291905Y-55570771D01*
X83291905Y-55570771D02*
X83339524Y-55666009D01*
X83339524Y-55666009D02*
X83339524Y-56189819D01*
X84244285Y-56189819D02*
X84244285Y-55666009D01*
X84244285Y-55666009D02*
X84196666Y-55570771D01*
X84196666Y-55570771D02*
X84101428Y-55523152D01*
X84101428Y-55523152D02*
X83910952Y-55523152D01*
X83910952Y-55523152D02*
X83815714Y-55570771D01*
X84244285Y-56142200D02*
X84149047Y-56189819D01*
X84149047Y-56189819D02*
X83910952Y-56189819D01*
X83910952Y-56189819D02*
X83815714Y-56142200D01*
X83815714Y-56142200D02*
X83768095Y-56046961D01*
X83768095Y-56046961D02*
X83768095Y-55951723D01*
X83768095Y-55951723D02*
X83815714Y-55856485D01*
X83815714Y-55856485D02*
X83910952Y-55808866D01*
X83910952Y-55808866D02*
X84149047Y-55808866D01*
X84149047Y-55808866D02*
X84244285Y-55761247D01*
X84863333Y-56189819D02*
X84768095Y-56142200D01*
X84768095Y-56142200D02*
X84720476Y-56046961D01*
X84720476Y-56046961D02*
X84720476Y-55189819D01*
X85387143Y-56189819D02*
X85291905Y-56142200D01*
X85291905Y-56142200D02*
X85244286Y-56046961D01*
X85244286Y-56046961D02*
X85244286Y-55189819D01*
D12*
X82430000Y-58000748D02*
X82401428Y-58029320D01*
X82401428Y-58029320D02*
X82315714Y-58057891D01*
X82315714Y-58057891D02*
X82258571Y-58057891D01*
X82258571Y-58057891D02*
X82172857Y-58029320D01*
X82172857Y-58029320D02*
X82115714Y-57972177D01*
X82115714Y-57972177D02*
X82087143Y-57915034D01*
X82087143Y-57915034D02*
X82058571Y-57800748D01*
X82058571Y-57800748D02*
X82058571Y-57715034D01*
X82058571Y-57715034D02*
X82087143Y-57600748D01*
X82087143Y-57600748D02*
X82115714Y-57543605D01*
X82115714Y-57543605D02*
X82172857Y-57486462D01*
X82172857Y-57486462D02*
X82258571Y-57457891D01*
X82258571Y-57457891D02*
X82315714Y-57457891D01*
X82315714Y-57457891D02*
X82401428Y-57486462D01*
X82401428Y-57486462D02*
X82430000Y-57515034D01*
X82630000Y-57457891D02*
X83001428Y-57457891D01*
X83001428Y-57457891D02*
X82801428Y-57686462D01*
X82801428Y-57686462D02*
X82887143Y-57686462D01*
X82887143Y-57686462D02*
X82944286Y-57715034D01*
X82944286Y-57715034D02*
X82972857Y-57743605D01*
X82972857Y-57743605D02*
X83001428Y-57800748D01*
X83001428Y-57800748D02*
X83001428Y-57943605D01*
X83001428Y-57943605D02*
X82972857Y-58000748D01*
X82972857Y-58000748D02*
X82944286Y-58029320D01*
X82944286Y-58029320D02*
X82887143Y-58057891D01*
X82887143Y-58057891D02*
X82715714Y-58057891D01*
X82715714Y-58057891D02*
X82658571Y-58029320D01*
X82658571Y-58029320D02*
X82630000Y-58000748D01*
D10*
X69538458Y-77769580D02*
X69490839Y-77817200D01*
X69490839Y-77817200D02*
X69347982Y-77864819D01*
X69347982Y-77864819D02*
X69252744Y-77864819D01*
X69252744Y-77864819D02*
X69109887Y-77817200D01*
X69109887Y-77817200D02*
X69014649Y-77721961D01*
X69014649Y-77721961D02*
X68967030Y-77626723D01*
X68967030Y-77626723D02*
X68919411Y-77436247D01*
X68919411Y-77436247D02*
X68919411Y-77293390D01*
X68919411Y-77293390D02*
X68967030Y-77102914D01*
X68967030Y-77102914D02*
X69014649Y-77007676D01*
X69014649Y-77007676D02*
X69109887Y-76912438D01*
X69109887Y-76912438D02*
X69252744Y-76864819D01*
X69252744Y-76864819D02*
X69347982Y-76864819D01*
X69347982Y-76864819D02*
X69490839Y-76912438D01*
X69490839Y-76912438D02*
X69538458Y-76960057D01*
X69728935Y-77960057D02*
X70490839Y-77960057D01*
X70728935Y-77864819D02*
X70728935Y-76864819D01*
X70728935Y-76864819D02*
X71109887Y-76864819D01*
X71109887Y-76864819D02*
X71205125Y-76912438D01*
X71205125Y-76912438D02*
X71252744Y-76960057D01*
X71252744Y-76960057D02*
X71300363Y-77055295D01*
X71300363Y-77055295D02*
X71300363Y-77198152D01*
X71300363Y-77198152D02*
X71252744Y-77293390D01*
X71252744Y-77293390D02*
X71205125Y-77341009D01*
X71205125Y-77341009D02*
X71109887Y-77388628D01*
X71109887Y-77388628D02*
X70728935Y-77388628D01*
X71871792Y-77864819D02*
X71776554Y-77817200D01*
X71776554Y-77817200D02*
X71728935Y-77769580D01*
X71728935Y-77769580D02*
X71681316Y-77674342D01*
X71681316Y-77674342D02*
X71681316Y-77388628D01*
X71681316Y-77388628D02*
X71728935Y-77293390D01*
X71728935Y-77293390D02*
X71776554Y-77245771D01*
X71776554Y-77245771D02*
X71871792Y-77198152D01*
X71871792Y-77198152D02*
X72014649Y-77198152D01*
X72014649Y-77198152D02*
X72109887Y-77245771D01*
X72109887Y-77245771D02*
X72157506Y-77293390D01*
X72157506Y-77293390D02*
X72205125Y-77388628D01*
X72205125Y-77388628D02*
X72205125Y-77674342D01*
X72205125Y-77674342D02*
X72157506Y-77769580D01*
X72157506Y-77769580D02*
X72109887Y-77817200D01*
X72109887Y-77817200D02*
X72014649Y-77864819D01*
X72014649Y-77864819D02*
X71871792Y-77864819D01*
X72776554Y-77864819D02*
X72681316Y-77817200D01*
X72681316Y-77817200D02*
X72633697Y-77721961D01*
X72633697Y-77721961D02*
X72633697Y-76864819D01*
X73586078Y-77864819D02*
X73586078Y-77341009D01*
X73586078Y-77341009D02*
X73538459Y-77245771D01*
X73538459Y-77245771D02*
X73443221Y-77198152D01*
X73443221Y-77198152D02*
X73252745Y-77198152D01*
X73252745Y-77198152D02*
X73157507Y-77245771D01*
X73586078Y-77817200D02*
X73490840Y-77864819D01*
X73490840Y-77864819D02*
X73252745Y-77864819D01*
X73252745Y-77864819D02*
X73157507Y-77817200D01*
X73157507Y-77817200D02*
X73109888Y-77721961D01*
X73109888Y-77721961D02*
X73109888Y-77626723D01*
X73109888Y-77626723D02*
X73157507Y-77531485D01*
X73157507Y-77531485D02*
X73252745Y-77483866D01*
X73252745Y-77483866D02*
X73490840Y-77483866D01*
X73490840Y-77483866D02*
X73586078Y-77436247D01*
X74062269Y-77864819D02*
X74062269Y-77198152D01*
X74062269Y-77388628D02*
X74109888Y-77293390D01*
X74109888Y-77293390D02*
X74157507Y-77245771D01*
X74157507Y-77245771D02*
X74252745Y-77198152D01*
X74252745Y-77198152D02*
X74347983Y-77198152D01*
X74681317Y-77864819D02*
X74681317Y-77198152D01*
X74681317Y-76864819D02*
X74633698Y-76912438D01*
X74633698Y-76912438D02*
X74681317Y-76960057D01*
X74681317Y-76960057D02*
X74728936Y-76912438D01*
X74728936Y-76912438D02*
X74681317Y-76864819D01*
X74681317Y-76864819D02*
X74681317Y-76960057D01*
X75062269Y-77198152D02*
X75586078Y-77198152D01*
X75586078Y-77198152D02*
X75062269Y-77864819D01*
X75062269Y-77864819D02*
X75586078Y-77864819D01*
X76347983Y-77817200D02*
X76252745Y-77864819D01*
X76252745Y-77864819D02*
X76062269Y-77864819D01*
X76062269Y-77864819D02*
X75967031Y-77817200D01*
X75967031Y-77817200D02*
X75919412Y-77721961D01*
X75919412Y-77721961D02*
X75919412Y-77341009D01*
X75919412Y-77341009D02*
X75967031Y-77245771D01*
X75967031Y-77245771D02*
X76062269Y-77198152D01*
X76062269Y-77198152D02*
X76252745Y-77198152D01*
X76252745Y-77198152D02*
X76347983Y-77245771D01*
X76347983Y-77245771D02*
X76395602Y-77341009D01*
X76395602Y-77341009D02*
X76395602Y-77436247D01*
X76395602Y-77436247D02*
X75919412Y-77531485D01*
X77252745Y-77864819D02*
X77252745Y-76864819D01*
X77252745Y-77817200D02*
X77157507Y-77864819D01*
X77157507Y-77864819D02*
X76967031Y-77864819D01*
X76967031Y-77864819D02*
X76871793Y-77817200D01*
X76871793Y-77817200D02*
X76824174Y-77769580D01*
X76824174Y-77769580D02*
X76776555Y-77674342D01*
X76776555Y-77674342D02*
X76776555Y-77388628D01*
X76776555Y-77388628D02*
X76824174Y-77293390D01*
X76824174Y-77293390D02*
X76871793Y-77245771D01*
X76871793Y-77245771D02*
X76967031Y-77198152D01*
X76967031Y-77198152D02*
X77157507Y-77198152D01*
X77157507Y-77198152D02*
X77252745Y-77245771D01*
X77490841Y-77960057D02*
X78252745Y-77960057D01*
X78443222Y-77817200D02*
X78586079Y-77864819D01*
X78586079Y-77864819D02*
X78824174Y-77864819D01*
X78824174Y-77864819D02*
X78919412Y-77817200D01*
X78919412Y-77817200D02*
X78967031Y-77769580D01*
X78967031Y-77769580D02*
X79014650Y-77674342D01*
X79014650Y-77674342D02*
X79014650Y-77579104D01*
X79014650Y-77579104D02*
X78967031Y-77483866D01*
X78967031Y-77483866D02*
X78919412Y-77436247D01*
X78919412Y-77436247D02*
X78824174Y-77388628D01*
X78824174Y-77388628D02*
X78633698Y-77341009D01*
X78633698Y-77341009D02*
X78538460Y-77293390D01*
X78538460Y-77293390D02*
X78490841Y-77245771D01*
X78490841Y-77245771D02*
X78443222Y-77150533D01*
X78443222Y-77150533D02*
X78443222Y-77055295D01*
X78443222Y-77055295D02*
X78490841Y-76960057D01*
X78490841Y-76960057D02*
X78538460Y-76912438D01*
X78538460Y-76912438D02*
X78633698Y-76864819D01*
X78633698Y-76864819D02*
X78871793Y-76864819D01*
X78871793Y-76864819D02*
X79014650Y-76912438D01*
X79443222Y-77864819D02*
X79443222Y-77198152D01*
X79443222Y-77293390D02*
X79490841Y-77245771D01*
X79490841Y-77245771D02*
X79586079Y-77198152D01*
X79586079Y-77198152D02*
X79728936Y-77198152D01*
X79728936Y-77198152D02*
X79824174Y-77245771D01*
X79824174Y-77245771D02*
X79871793Y-77341009D01*
X79871793Y-77341009D02*
X79871793Y-77864819D01*
X79871793Y-77341009D02*
X79919412Y-77245771D01*
X79919412Y-77245771D02*
X80014650Y-77198152D01*
X80014650Y-77198152D02*
X80157507Y-77198152D01*
X80157507Y-77198152D02*
X80252746Y-77245771D01*
X80252746Y-77245771D02*
X80300365Y-77341009D01*
X80300365Y-77341009D02*
X80300365Y-77864819D01*
X81205126Y-77864819D02*
X81205126Y-77341009D01*
X81205126Y-77341009D02*
X81157507Y-77245771D01*
X81157507Y-77245771D02*
X81062269Y-77198152D01*
X81062269Y-77198152D02*
X80871793Y-77198152D01*
X80871793Y-77198152D02*
X80776555Y-77245771D01*
X81205126Y-77817200D02*
X81109888Y-77864819D01*
X81109888Y-77864819D02*
X80871793Y-77864819D01*
X80871793Y-77864819D02*
X80776555Y-77817200D01*
X80776555Y-77817200D02*
X80728936Y-77721961D01*
X80728936Y-77721961D02*
X80728936Y-77626723D01*
X80728936Y-77626723D02*
X80776555Y-77531485D01*
X80776555Y-77531485D02*
X80871793Y-77483866D01*
X80871793Y-77483866D02*
X81109888Y-77483866D01*
X81109888Y-77483866D02*
X81205126Y-77436247D01*
X81824174Y-77864819D02*
X81728936Y-77817200D01*
X81728936Y-77817200D02*
X81681317Y-77721961D01*
X81681317Y-77721961D02*
X81681317Y-76864819D01*
X82347984Y-77864819D02*
X82252746Y-77817200D01*
X82252746Y-77817200D02*
X82205127Y-77721961D01*
X82205127Y-77721961D02*
X82205127Y-76864819D01*
X75443221Y-74019580D02*
X75395602Y-74067200D01*
X75395602Y-74067200D02*
X75252745Y-74114819D01*
X75252745Y-74114819D02*
X75157507Y-74114819D01*
X75157507Y-74114819D02*
X75014650Y-74067200D01*
X75014650Y-74067200D02*
X74919412Y-73971961D01*
X74919412Y-73971961D02*
X74871793Y-73876723D01*
X74871793Y-73876723D02*
X74824174Y-73686247D01*
X74824174Y-73686247D02*
X74824174Y-73543390D01*
X74824174Y-73543390D02*
X74871793Y-73352914D01*
X74871793Y-73352914D02*
X74919412Y-73257676D01*
X74919412Y-73257676D02*
X75014650Y-73162438D01*
X75014650Y-73162438D02*
X75157507Y-73114819D01*
X75157507Y-73114819D02*
X75252745Y-73114819D01*
X75252745Y-73114819D02*
X75395602Y-73162438D01*
X75395602Y-73162438D02*
X75443221Y-73210057D01*
X76347983Y-73114819D02*
X75871793Y-73114819D01*
X75871793Y-73114819D02*
X75824174Y-73591009D01*
X75824174Y-73591009D02*
X75871793Y-73543390D01*
X75871793Y-73543390D02*
X75967031Y-73495771D01*
X75967031Y-73495771D02*
X76205126Y-73495771D01*
X76205126Y-73495771D02*
X76300364Y-73543390D01*
X76300364Y-73543390D02*
X76347983Y-73591009D01*
X76347983Y-73591009D02*
X76395602Y-73686247D01*
X76395602Y-73686247D02*
X76395602Y-73924342D01*
X76395602Y-73924342D02*
X76347983Y-74019580D01*
X76347983Y-74019580D02*
X76300364Y-74067200D01*
X76300364Y-74067200D02*
X76205126Y-74114819D01*
X76205126Y-74114819D02*
X75967031Y-74114819D01*
X75967031Y-74114819D02*
X75871793Y-74067200D01*
X75871793Y-74067200D02*
X75824174Y-74019580D01*
D13*
X67002469Y-39489999D02*
X66659612Y-39729999D01*
X67002469Y-39901428D02*
X66282469Y-39901428D01*
X66282469Y-39901428D02*
X66282469Y-39627142D01*
X66282469Y-39627142D02*
X66316755Y-39558571D01*
X66316755Y-39558571D02*
X66351041Y-39524285D01*
X66351041Y-39524285D02*
X66419612Y-39489999D01*
X66419612Y-39489999D02*
X66522469Y-39489999D01*
X66522469Y-39489999D02*
X66591041Y-39524285D01*
X66591041Y-39524285D02*
X66625326Y-39558571D01*
X66625326Y-39558571D02*
X66659612Y-39627142D01*
X66659612Y-39627142D02*
X66659612Y-39901428D01*
X67002469Y-38804285D02*
X67002469Y-39215714D01*
X67002469Y-39009999D02*
X66282469Y-39009999D01*
X66282469Y-39009999D02*
X66385326Y-39078571D01*
X66385326Y-39078571D02*
X66453898Y-39147142D01*
X66453898Y-39147142D02*
X66488184Y-39215714D01*
D10*
X108689819Y-44566904D02*
X109499342Y-44566904D01*
X109499342Y-44566904D02*
X109594580Y-44519285D01*
X109594580Y-44519285D02*
X109642200Y-44471666D01*
X109642200Y-44471666D02*
X109689819Y-44376428D01*
X109689819Y-44376428D02*
X109689819Y-44185952D01*
X109689819Y-44185952D02*
X109642200Y-44090714D01*
X109642200Y-44090714D02*
X109594580Y-44043095D01*
X109594580Y-44043095D02*
X109499342Y-43995476D01*
X109499342Y-43995476D02*
X108689819Y-43995476D01*
X108785057Y-43566904D02*
X108737438Y-43519285D01*
X108737438Y-43519285D02*
X108689819Y-43424047D01*
X108689819Y-43424047D02*
X108689819Y-43185952D01*
X108689819Y-43185952D02*
X108737438Y-43090714D01*
X108737438Y-43090714D02*
X108785057Y-43043095D01*
X108785057Y-43043095D02*
X108880295Y-42995476D01*
X108880295Y-42995476D02*
X108975533Y-42995476D01*
X108975533Y-42995476D02*
X109118390Y-43043095D01*
X109118390Y-43043095D02*
X109689819Y-43614523D01*
X109689819Y-43614523D02*
X109689819Y-42995476D01*
X97244819Y-69341904D02*
X98054342Y-69341904D01*
X98054342Y-69341904D02*
X98149580Y-69294285D01*
X98149580Y-69294285D02*
X98197200Y-69246666D01*
X98197200Y-69246666D02*
X98244819Y-69151428D01*
X98244819Y-69151428D02*
X98244819Y-68960952D01*
X98244819Y-68960952D02*
X98197200Y-68865714D01*
X98197200Y-68865714D02*
X98149580Y-68818095D01*
X98149580Y-68818095D02*
X98054342Y-68770476D01*
X98054342Y-68770476D02*
X97244819Y-68770476D01*
X97578152Y-67865714D02*
X98244819Y-67865714D01*
X97197200Y-68103809D02*
X97911485Y-68341904D01*
X97911485Y-68341904D02*
X97911485Y-67722857D01*
X53429819Y-69341904D02*
X54239342Y-69341904D01*
X54239342Y-69341904D02*
X54334580Y-69294285D01*
X54334580Y-69294285D02*
X54382200Y-69246666D01*
X54382200Y-69246666D02*
X54429819Y-69151428D01*
X54429819Y-69151428D02*
X54429819Y-68960952D01*
X54429819Y-68960952D02*
X54382200Y-68865714D01*
X54382200Y-68865714D02*
X54334580Y-68818095D01*
X54334580Y-68818095D02*
X54239342Y-68770476D01*
X54239342Y-68770476D02*
X53429819Y-68770476D01*
X53429819Y-68389523D02*
X53429819Y-67770476D01*
X53429819Y-67770476D02*
X53810771Y-68103809D01*
X53810771Y-68103809D02*
X53810771Y-67960952D01*
X53810771Y-67960952D02*
X53858390Y-67865714D01*
X53858390Y-67865714D02*
X53906009Y-67818095D01*
X53906009Y-67818095D02*
X54001247Y-67770476D01*
X54001247Y-67770476D02*
X54239342Y-67770476D01*
X54239342Y-67770476D02*
X54334580Y-67818095D01*
X54334580Y-67818095D02*
X54382200Y-67865714D01*
X54382200Y-67865714D02*
X54429819Y-67960952D01*
X54429819Y-67960952D02*
X54429819Y-68246666D01*
X54429819Y-68246666D02*
X54382200Y-68341904D01*
X54382200Y-68341904D02*
X54334580Y-68389523D01*
X50889819Y-69341904D02*
X51699342Y-69341904D01*
X51699342Y-69341904D02*
X51794580Y-69294285D01*
X51794580Y-69294285D02*
X51842200Y-69246666D01*
X51842200Y-69246666D02*
X51889819Y-69151428D01*
X51889819Y-69151428D02*
X51889819Y-68960952D01*
X51889819Y-68960952D02*
X51842200Y-68865714D01*
X51842200Y-68865714D02*
X51794580Y-68818095D01*
X51794580Y-68818095D02*
X51699342Y-68770476D01*
X51699342Y-68770476D02*
X50889819Y-68770476D01*
X50889819Y-67818095D02*
X50889819Y-68294285D01*
X50889819Y-68294285D02*
X51366009Y-68341904D01*
X51366009Y-68341904D02*
X51318390Y-68294285D01*
X51318390Y-68294285D02*
X51270771Y-68199047D01*
X51270771Y-68199047D02*
X51270771Y-67960952D01*
X51270771Y-67960952D02*
X51318390Y-67865714D01*
X51318390Y-67865714D02*
X51366009Y-67818095D01*
X51366009Y-67818095D02*
X51461247Y-67770476D01*
X51461247Y-67770476D02*
X51699342Y-67770476D01*
X51699342Y-67770476D02*
X51794580Y-67818095D01*
X51794580Y-67818095D02*
X51842200Y-67865714D01*
X51842200Y-67865714D02*
X51889819Y-67960952D01*
X51889819Y-67960952D02*
X51889819Y-68199047D01*
X51889819Y-68199047D02*
X51842200Y-68294285D01*
X51842200Y-68294285D02*
X51794580Y-68341904D01*
D14*
%TO.C,U1*%
X68341000Y-40640000D02*
X95519000Y-40640000D01*
X68341000Y-46990000D02*
X68341000Y-40640000D01*
X69865000Y-40005000D02*
X69865000Y-40640000D01*
X69865000Y-47625000D02*
X69865000Y-46990000D01*
X69865000Y-47625000D02*
X71135000Y-47625000D01*
X71135000Y-40005000D02*
X69865000Y-40005000D01*
X71135000Y-40005000D02*
X71135000Y-40640000D01*
X71135000Y-47625000D02*
X71135000Y-46990000D01*
X72405000Y-40005000D02*
X72405000Y-40640000D01*
X72405000Y-47625000D02*
X72405000Y-46990000D01*
X72405000Y-47625000D02*
X73675000Y-47625000D01*
X73675000Y-40005000D02*
X72405000Y-40005000D01*
X73675000Y-40005000D02*
X73675000Y-40640000D01*
X73675000Y-47625000D02*
X73675000Y-46990000D01*
X74945000Y-40005000D02*
X74945000Y-40640000D01*
X74945000Y-47625000D02*
X74945000Y-46990000D01*
X74945000Y-47625000D02*
X76215000Y-47625000D01*
X76215000Y-40005000D02*
X74945000Y-40005000D01*
X76215000Y-40005000D02*
X76215000Y-40640000D01*
X76215000Y-47625000D02*
X76215000Y-46990000D01*
X77485000Y-40005000D02*
X77485000Y-40640000D01*
X77485000Y-47625000D02*
X77485000Y-46990000D01*
X77485000Y-47625000D02*
X78755000Y-47625000D01*
X78755000Y-40005000D02*
X77485000Y-40005000D01*
X78755000Y-40005000D02*
X78755000Y-40640000D01*
X78755000Y-47625000D02*
X78755000Y-46990000D01*
X80025000Y-40005000D02*
X80025000Y-40640000D01*
X80025000Y-47625000D02*
X80025000Y-46990000D01*
X80025000Y-47625000D02*
X81295000Y-47625000D01*
X81295000Y-40005000D02*
X80025000Y-40005000D01*
X81295000Y-40005000D02*
X81295000Y-40640000D01*
X81295000Y-47625000D02*
X81295000Y-46990000D01*
X82565000Y-40005000D02*
X82565000Y-40640000D01*
X82565000Y-47625000D02*
X82565000Y-46990000D01*
X82565000Y-47625000D02*
X83835000Y-47625000D01*
X83835000Y-40005000D02*
X82565000Y-40005000D01*
X83835000Y-40005000D02*
X83835000Y-40640000D01*
X83835000Y-47625000D02*
X83835000Y-46990000D01*
X85105000Y-40005000D02*
X85105000Y-40640000D01*
X85105000Y-47625000D02*
X85105000Y-46990000D01*
X85105000Y-47625000D02*
X86375000Y-47625000D01*
X86375000Y-40005000D02*
X85105000Y-40005000D01*
X86375000Y-40005000D02*
X86375000Y-40640000D01*
X86375000Y-47625000D02*
X86375000Y-46990000D01*
X87645000Y-40005000D02*
X87645000Y-40640000D01*
X87645000Y-47625000D02*
X87645000Y-46990000D01*
X87645000Y-47625000D02*
X88915000Y-47625000D01*
X88915000Y-40005000D02*
X87645000Y-40005000D01*
X88915000Y-40005000D02*
X88915000Y-40640000D01*
X88915000Y-47625000D02*
X88915000Y-46990000D01*
X90185000Y-40005000D02*
X90185000Y-40640000D01*
X90185000Y-47625000D02*
X90185000Y-46990000D01*
X90185000Y-47625000D02*
X91455000Y-47625000D01*
X91455000Y-40005000D02*
X90185000Y-40005000D01*
X91455000Y-40005000D02*
X91455000Y-40640000D01*
X91455000Y-47625000D02*
X91455000Y-46990000D01*
X92725000Y-40005000D02*
X92725000Y-40640000D01*
X92725000Y-47625000D02*
X92725000Y-46990000D01*
X92725000Y-47625000D02*
X93995000Y-47625000D01*
X93995000Y-40005000D02*
X92725000Y-40005000D01*
X93995000Y-40005000D02*
X93995000Y-40640000D01*
X93995000Y-47625000D02*
X93995000Y-46990000D01*
X95519000Y-40640000D02*
X95519000Y-46990000D01*
X95519000Y-46990000D02*
X68341000Y-46990000D01*
X68341000Y-42926000D02*
G75*
G02*
X68341000Y-44704000I0J-889000D01*
G01*
D15*
X69572500Y-45974000D02*
G75*
G02*
X69141500Y-45974000I-215500J0D01*
G01*
X69141500Y-45974000D02*
G75*
G02*
X69572500Y-45974000I215500J0D01*
G01*
D14*
%TO.C,D1*%
X65675000Y-47530000D02*
X65675000Y-51530000D01*
X65675000Y-51530000D02*
X67675000Y-51530000D01*
X66675000Y-45720000D02*
X66675000Y-47530000D01*
X66675000Y-53340000D02*
X66675000Y-51530000D01*
X67675000Y-47530000D02*
X65675000Y-47530000D01*
X67675000Y-48030000D02*
X65675000Y-48030000D01*
X67675000Y-48130000D02*
X65675000Y-48130000D01*
X67675000Y-48230000D02*
X65675000Y-48230000D01*
X67675000Y-51530000D02*
X67675000Y-47530000D01*
%TO.C,C2*%
X30950000Y-55630000D02*
X30950000Y-58630000D01*
X30950000Y-58630000D02*
X32550000Y-58630000D01*
X32550000Y-55630000D02*
X30950000Y-55630000D01*
X32550000Y-58630000D02*
X32550000Y-55630000D01*
D11*
%TO.C,U6*%
X88392000Y-59817000D02*
X108458000Y-59817000D01*
X88392000Y-69088000D02*
X89281000Y-68580000D01*
X88392000Y-76327000D02*
X88392000Y-59817000D01*
X89281000Y-68580000D02*
X88392000Y-68072000D01*
X89408000Y-77343000D02*
X88392000Y-76327000D01*
X90297000Y-61722000D02*
X106553000Y-61722000D01*
X90297000Y-75438000D02*
X90297000Y-61722000D01*
D14*
X91440000Y-62865000D02*
X105410000Y-62865000D01*
X91440000Y-68080000D02*
X91440000Y-62865000D01*
X91440000Y-73155000D02*
X91440000Y-68080000D01*
X92425000Y-62880000D02*
X92425000Y-74130000D01*
X92580000Y-74295000D02*
X91440000Y-73155000D01*
X105410000Y-62865000D02*
X105410000Y-74295000D01*
X105410000Y-74295000D02*
X92580000Y-74295000D01*
D11*
X106553000Y-61722000D02*
X106553000Y-75438000D01*
X106553000Y-75438000D02*
X90297000Y-75438000D01*
X108458000Y-59817000D02*
X108458000Y-77343000D01*
X108458000Y-77343000D02*
X89408000Y-77343000D01*
D16*
X92075000Y-68580000D02*
G75*
G02*
X91775000Y-68580000I-150000J0D01*
G01*
X91775000Y-68580000D02*
G75*
G02*
X92075000Y-68580000I150000J0D01*
G01*
D14*
%TO.C,C1*%
X70250000Y-36030000D02*
X70250000Y-37630000D01*
X70250000Y-37630000D02*
X73250000Y-37630000D01*
X73250000Y-36030000D02*
X70250000Y-36030000D01*
X73250000Y-37630000D02*
X73250000Y-36030000D01*
%TO.C,D2*%
X63135000Y-47530000D02*
X63135000Y-51530000D01*
X63135000Y-51530000D02*
X65135000Y-51530000D01*
X64135000Y-45720000D02*
X64135000Y-47530000D01*
X64135000Y-53340000D02*
X64135000Y-51530000D01*
X65135000Y-47530000D02*
X63135000Y-47530000D01*
X65135000Y-48030000D02*
X63135000Y-48030000D01*
X65135000Y-48130000D02*
X63135000Y-48130000D01*
X65135000Y-48230000D02*
X63135000Y-48230000D01*
X65135000Y-51530000D02*
X65135000Y-47530000D01*
%TO.C,C4*%
X100095000Y-36030000D02*
X100095000Y-37630000D01*
X100095000Y-37630000D02*
X103095000Y-37630000D01*
X103095000Y-36030000D02*
X100095000Y-36030000D01*
X103095000Y-37630000D02*
X103095000Y-36030000D01*
%TO.C,C3*%
X81030000Y-56985000D02*
X81030000Y-58585000D01*
X81030000Y-58585000D02*
X84030000Y-58585000D01*
X84030000Y-56985000D02*
X81030000Y-56985000D01*
X84030000Y-58585000D02*
X84030000Y-56985000D01*
%TO.C,C5*%
X73476283Y-72572500D02*
X73976283Y-72572500D01*
X73726283Y-72322500D02*
X73726283Y-72822500D01*
X78109888Y-73660000D02*
G75*
G02*
X73109888Y-73660000I-2500000J0D01*
G01*
X73109888Y-73660000D02*
G75*
G02*
X78109888Y-73660000I2500000J0D01*
G01*
%TO.C,R1*%
X65875000Y-37570000D02*
X65875000Y-41170000D01*
X65875000Y-41170000D02*
X67475000Y-41170000D01*
X66675000Y-35560000D02*
X66675000Y-37570000D01*
X66675000Y-43180000D02*
X66675000Y-41170000D01*
X67475000Y-37570000D02*
X65875000Y-37570000D01*
X67475000Y-41170000D02*
X67475000Y-37570000D01*
%TO.C,U2*%
X99075000Y-40630000D02*
X119395000Y-40630000D01*
X99075000Y-46980000D02*
X99075000Y-40630000D01*
X99710000Y-39995000D02*
X99710000Y-40630000D01*
X99710000Y-47615000D02*
X99710000Y-46980000D01*
X99710000Y-47615000D02*
X100980000Y-47615000D01*
X100980000Y-39995000D02*
X99710000Y-39995000D01*
X100980000Y-39995000D02*
X100980000Y-40630000D01*
X100980000Y-47615000D02*
X100980000Y-46980000D01*
X102250000Y-39995000D02*
X102250000Y-40630000D01*
X102250000Y-47615000D02*
X102250000Y-46980000D01*
X102250000Y-47615000D02*
X103520000Y-47615000D01*
X103520000Y-39995000D02*
X102250000Y-39995000D01*
X103520000Y-39995000D02*
X103520000Y-40630000D01*
X103520000Y-47615000D02*
X103520000Y-46980000D01*
X104790000Y-39995000D02*
X104790000Y-40630000D01*
X104790000Y-47615000D02*
X104790000Y-46980000D01*
X104790000Y-47615000D02*
X106060000Y-47615000D01*
X106060000Y-39995000D02*
X104790000Y-39995000D01*
X106060000Y-39995000D02*
X106060000Y-40630000D01*
X106060000Y-47615000D02*
X106060000Y-46980000D01*
X107330000Y-39995000D02*
X107330000Y-40630000D01*
X107330000Y-47615000D02*
X107330000Y-46980000D01*
X107330000Y-47615000D02*
X108600000Y-47615000D01*
X108600000Y-39995000D02*
X107330000Y-39995000D01*
X108600000Y-39995000D02*
X108600000Y-40630000D01*
X108600000Y-47615000D02*
X108600000Y-46980000D01*
X109870000Y-39995000D02*
X109870000Y-40630000D01*
X109870000Y-47615000D02*
X109870000Y-46980000D01*
X109870000Y-47615000D02*
X111140000Y-47615000D01*
X111140000Y-39995000D02*
X109870000Y-39995000D01*
X111140000Y-39995000D02*
X111140000Y-40630000D01*
X111140000Y-47615000D02*
X111140000Y-46980000D01*
X112410000Y-39995000D02*
X112410000Y-40630000D01*
X112410000Y-47615000D02*
X112410000Y-46980000D01*
X112410000Y-47615000D02*
X113680000Y-47615000D01*
X113680000Y-39995000D02*
X112410000Y-39995000D01*
X113680000Y-39995000D02*
X113680000Y-40630000D01*
X113680000Y-47615000D02*
X113680000Y-46980000D01*
X114950000Y-39995000D02*
X114950000Y-40630000D01*
X114950000Y-47615000D02*
X114950000Y-46980000D01*
X114950000Y-47615000D02*
X116220000Y-47615000D01*
X116220000Y-39995000D02*
X114950000Y-39995000D01*
X116220000Y-39995000D02*
X116220000Y-40630000D01*
X116220000Y-47615000D02*
X116220000Y-46980000D01*
X117490000Y-39995000D02*
X117490000Y-40630000D01*
X117490000Y-47615000D02*
X117490000Y-46980000D01*
X117490000Y-47615000D02*
X118760000Y-47615000D01*
X118760000Y-39995000D02*
X117490000Y-39995000D01*
X118760000Y-39995000D02*
X118760000Y-40630000D01*
X118760000Y-47615000D02*
X118760000Y-46980000D01*
X119395000Y-40630000D02*
X119395000Y-46980000D01*
X119395000Y-46980000D02*
X99075000Y-46980000D01*
X99075000Y-42916000D02*
G75*
G02*
X99075000Y-44694000I0J-889000D01*
G01*
D15*
X100306500Y-45964000D02*
G75*
G02*
X99875500Y-45964000I-215500J0D01*
G01*
X99875500Y-45964000D02*
G75*
G02*
X100306500Y-45964000I215500J0D01*
G01*
D14*
%TO.C,U4*%
X79375000Y-61214000D02*
X116205000Y-61215000D01*
X79375000Y-75944000D02*
X79375000Y-61214000D01*
X80645000Y-60960000D02*
X80645000Y-61214000D01*
X80645000Y-76200000D02*
X80645000Y-75946000D01*
X80645000Y-76200000D02*
X81915000Y-76200000D01*
X81915000Y-60960000D02*
X80645000Y-60960000D01*
X81915000Y-60960000D02*
X81915000Y-61214000D01*
X81915000Y-76200000D02*
X81915000Y-75946000D01*
X83185000Y-60960000D02*
X83185000Y-61214000D01*
X83185000Y-76200000D02*
X83185000Y-75946000D01*
X83185000Y-76200000D02*
X84455000Y-76200000D01*
X84455000Y-60960000D02*
X83185000Y-60960000D01*
X84455000Y-60960000D02*
X84455000Y-61214000D01*
X84455000Y-76200000D02*
X84455000Y-75946000D01*
X85725000Y-60960000D02*
X85725000Y-61214000D01*
X85725000Y-76200000D02*
X85725000Y-75946000D01*
X85725000Y-76200000D02*
X86995000Y-76200000D01*
X86995000Y-60960000D02*
X85725000Y-60960000D01*
X86995000Y-60960000D02*
X86995000Y-61214000D01*
X86995000Y-76200000D02*
X86995000Y-75946000D01*
X88265000Y-60960000D02*
X88265000Y-61214000D01*
X88265000Y-76200000D02*
X88265000Y-75946000D01*
X88265000Y-76200000D02*
X89535000Y-76200000D01*
X89535000Y-60960000D02*
X88265000Y-60960000D01*
X89535000Y-60960000D02*
X89535000Y-61214000D01*
X89535000Y-76200000D02*
X89535000Y-75946000D01*
X90805000Y-60960000D02*
X90805000Y-61214000D01*
X90805000Y-76200000D02*
X90805000Y-75946000D01*
X90805000Y-76200000D02*
X92075000Y-76200000D01*
X92075000Y-60960000D02*
X90805000Y-60960000D01*
X92075000Y-60960000D02*
X92075000Y-61214000D01*
X92075000Y-76200000D02*
X92075000Y-75946000D01*
X93345000Y-60960000D02*
X93345000Y-61214000D01*
X93345000Y-76200000D02*
X93345000Y-75946000D01*
X93345000Y-76200000D02*
X94615000Y-76200000D01*
X94615000Y-60960000D02*
X93345000Y-60960000D01*
X94615000Y-60960000D02*
X94615000Y-61214000D01*
X94615000Y-76200000D02*
X94615000Y-75946000D01*
X95885000Y-60960000D02*
X95885000Y-61214000D01*
X95885000Y-76200000D02*
X95885000Y-75946000D01*
X95885000Y-76200000D02*
X97155000Y-76200000D01*
X97155000Y-60960000D02*
X95885000Y-60960000D01*
X97155000Y-60960000D02*
X97155000Y-61214000D01*
X97155000Y-76200000D02*
X97155000Y-75946000D01*
X98425000Y-60960000D02*
X98425000Y-61214000D01*
X98425000Y-76200000D02*
X98425000Y-75946000D01*
X98425000Y-76200000D02*
X99695000Y-76200000D01*
X99695000Y-60960000D02*
X98425000Y-60960000D01*
X99695000Y-60960000D02*
X99695000Y-61214000D01*
X99695000Y-76200000D02*
X99695000Y-75946000D01*
X100965000Y-60960000D02*
X100965000Y-61214000D01*
X100965000Y-76200000D02*
X100965000Y-75946000D01*
X100965000Y-76200000D02*
X102235000Y-76200000D01*
X102235000Y-60960000D02*
X100965000Y-60960000D01*
X102235000Y-60960000D02*
X102235000Y-61214000D01*
X102235000Y-76200000D02*
X102235000Y-75946000D01*
X103505000Y-60960000D02*
X103505000Y-61214000D01*
X103505000Y-76200000D02*
X103505000Y-75946000D01*
X103505000Y-76200000D02*
X104775000Y-76200000D01*
X104775000Y-60960000D02*
X103505000Y-60960000D01*
X104775000Y-60960000D02*
X104775000Y-61214000D01*
X104775000Y-76200000D02*
X104775000Y-75946000D01*
X106045000Y-60960000D02*
X106045000Y-61214000D01*
X106045000Y-76200000D02*
X106045000Y-75946000D01*
X106045000Y-76200000D02*
X107315000Y-76200000D01*
X107315000Y-60960000D02*
X106045000Y-60960000D01*
X107315000Y-60960000D02*
X107315000Y-61214000D01*
X107315000Y-76200000D02*
X107315000Y-75946000D01*
X108585000Y-60960000D02*
X108585000Y-61214000D01*
X108585000Y-76200000D02*
X108585000Y-75946000D01*
X108585000Y-76200000D02*
X109855000Y-76200000D01*
X109855000Y-60960000D02*
X108585000Y-60960000D01*
X109855000Y-60960000D02*
X109855000Y-61214000D01*
X109855000Y-76200000D02*
X109855000Y-75946000D01*
X111125000Y-60960000D02*
X111125000Y-61214000D01*
X111125000Y-76200000D02*
X111125000Y-75946000D01*
X111125000Y-76200000D02*
X112395000Y-76200000D01*
X112395000Y-60960000D02*
X111125000Y-60960000D01*
X112395000Y-60960000D02*
X112395000Y-61214000D01*
X112395000Y-76200000D02*
X112395000Y-75946000D01*
X113665000Y-60960000D02*
X113665000Y-61214000D01*
X113665000Y-76200000D02*
X113665000Y-75946000D01*
X113665000Y-76200000D02*
X114935000Y-76200000D01*
X114935000Y-60960000D02*
X113665000Y-60960000D01*
X114935000Y-60960000D02*
X114935000Y-61214000D01*
X114935000Y-76200000D02*
X114935000Y-75946000D01*
X116205000Y-61215000D02*
X116205000Y-75945000D01*
X116205000Y-75945000D02*
X79375000Y-75944000D01*
X79375000Y-67691000D02*
G75*
G02*
X79375000Y-69469000I0J-889000D01*
G01*
D15*
X80606500Y-74930000D02*
G75*
G02*
X80175500Y-74930000I-215500J0D01*
G01*
X80175500Y-74930000D02*
G75*
G02*
X80606500Y-74930000I215500J0D01*
G01*
D11*
%TO.C,U3*%
X43942000Y-59817000D02*
X64008000Y-59817000D01*
X43942000Y-69088000D02*
X44831000Y-68580000D01*
X43942000Y-76327000D02*
X43942000Y-59817000D01*
X44831000Y-68580000D02*
X43942000Y-68072000D01*
X44958000Y-77343000D02*
X43942000Y-76327000D01*
X45847000Y-61722000D02*
X62103000Y-61722000D01*
X45847000Y-75438000D02*
X45847000Y-61722000D01*
D14*
X46990000Y-62865000D02*
X60960000Y-62865000D01*
X46990000Y-68080000D02*
X46990000Y-62865000D01*
X46990000Y-73155000D02*
X46990000Y-68080000D01*
X47975000Y-62880000D02*
X47975000Y-74130000D01*
X48130000Y-74295000D02*
X46990000Y-73155000D01*
X60960000Y-62865000D02*
X60960000Y-74295000D01*
X60960000Y-74295000D02*
X48130000Y-74295000D01*
D11*
X62103000Y-61722000D02*
X62103000Y-75438000D01*
X62103000Y-75438000D02*
X45847000Y-75438000D01*
X64008000Y-59817000D02*
X64008000Y-77343000D01*
X64008000Y-77343000D02*
X44958000Y-77343000D01*
D16*
X47625000Y-68580000D02*
G75*
G02*
X47325000Y-68580000I-150000J0D01*
G01*
X47325000Y-68580000D02*
G75*
G02*
X47625000Y-68580000I150000J0D01*
G01*
D14*
%TO.C,U5*%
X30480000Y-61215000D02*
X72390000Y-61215000D01*
X30480000Y-75946000D02*
X30480000Y-61215000D01*
X31750000Y-60960000D02*
X31750000Y-61214000D01*
X31750000Y-76200000D02*
X31750000Y-75946000D01*
X31750000Y-76200000D02*
X33020000Y-76200000D01*
X33020000Y-60960000D02*
X31750000Y-60960000D01*
X33020000Y-60960000D02*
X33020000Y-61214000D01*
X33020000Y-76200000D02*
X33020000Y-75946000D01*
X34290000Y-60960000D02*
X34290000Y-61214000D01*
X34290000Y-76200000D02*
X34290000Y-75946000D01*
X34290000Y-76200000D02*
X35560000Y-76200000D01*
X35560000Y-60960000D02*
X34290000Y-60960000D01*
X35560000Y-60960000D02*
X35560000Y-61214000D01*
X35560000Y-76200000D02*
X35560000Y-75946000D01*
X36830000Y-60960000D02*
X36830000Y-61214000D01*
X36830000Y-76200000D02*
X36830000Y-75946000D01*
X36830000Y-76200000D02*
X38100000Y-76200000D01*
X38100000Y-60960000D02*
X36830000Y-60960000D01*
X38100000Y-60960000D02*
X38100000Y-61214000D01*
X38100000Y-76200000D02*
X38100000Y-75946000D01*
X39370000Y-60960000D02*
X39370000Y-61214000D01*
X39370000Y-76200000D02*
X39370000Y-75946000D01*
X39370000Y-76200000D02*
X40640000Y-76200000D01*
X40640000Y-60960000D02*
X39370000Y-60960000D01*
X40640000Y-60960000D02*
X40640000Y-61214000D01*
X40640000Y-76200000D02*
X40640000Y-75946000D01*
X41910000Y-60960000D02*
X41910000Y-61214000D01*
X41910000Y-76200000D02*
X41910000Y-75946000D01*
X41910000Y-76200000D02*
X43180000Y-76200000D01*
X43180000Y-60960000D02*
X41910000Y-60960000D01*
X43180000Y-60960000D02*
X43180000Y-61214000D01*
X43180000Y-76200000D02*
X43180000Y-75946000D01*
X44450000Y-60960000D02*
X44450000Y-61214000D01*
X44450000Y-76200000D02*
X44450000Y-75946000D01*
X44450000Y-76200000D02*
X45720000Y-76200000D01*
X45720000Y-60960000D02*
X44450000Y-60960000D01*
X45720000Y-60960000D02*
X45720000Y-61214000D01*
X45720000Y-76200000D02*
X45720000Y-75946000D01*
X46990000Y-60960000D02*
X46990000Y-61214000D01*
X46990000Y-76200000D02*
X46990000Y-75946000D01*
X46990000Y-76200000D02*
X48260000Y-76200000D01*
X48260000Y-60960000D02*
X46990000Y-60960000D01*
X48260000Y-60960000D02*
X48260000Y-61214000D01*
X48260000Y-76200000D02*
X48260000Y-75946000D01*
X49530000Y-60960000D02*
X49530000Y-61214000D01*
X49530000Y-76200000D02*
X49530000Y-75946000D01*
X49530000Y-76200000D02*
X50800000Y-76200000D01*
X50800000Y-60960000D02*
X49530000Y-60960000D01*
X50800000Y-60960000D02*
X50800000Y-61214000D01*
X50800000Y-76200000D02*
X50800000Y-75946000D01*
X52070000Y-60960000D02*
X52070000Y-61214000D01*
X52070000Y-76200000D02*
X52070000Y-75946000D01*
X52070000Y-76200000D02*
X53340000Y-76200000D01*
X53340000Y-60960000D02*
X52070000Y-60960000D01*
X53340000Y-60960000D02*
X53340000Y-61214000D01*
X53340000Y-76200000D02*
X53340000Y-75946000D01*
X54610000Y-60960000D02*
X54610000Y-61214000D01*
X54610000Y-76200000D02*
X54610000Y-75946000D01*
X54610000Y-76200000D02*
X55880000Y-76200000D01*
X55880000Y-60960000D02*
X54610000Y-60960000D01*
X55880000Y-60960000D02*
X55880000Y-61214000D01*
X55880000Y-76200000D02*
X55880000Y-75946000D01*
X57150000Y-60960000D02*
X57150000Y-61214000D01*
X57150000Y-76200000D02*
X57150000Y-75946000D01*
X57150000Y-76200000D02*
X58420000Y-76200000D01*
X58420000Y-60960000D02*
X57150000Y-60960000D01*
X58420000Y-60960000D02*
X58420000Y-61214000D01*
X58420000Y-76200000D02*
X58420000Y-75946000D01*
X59690000Y-60960000D02*
X59690000Y-61214000D01*
X59690000Y-76200000D02*
X59690000Y-75946000D01*
X59690000Y-76200000D02*
X60960000Y-76200000D01*
X60960000Y-60960000D02*
X59690000Y-60960000D01*
X60960000Y-60960000D02*
X60960000Y-61214000D01*
X60960000Y-76200000D02*
X60960000Y-75946000D01*
X62230000Y-60960000D02*
X62230000Y-61214000D01*
X62230000Y-76200000D02*
X62230000Y-75946000D01*
X62230000Y-76200000D02*
X63500000Y-76200000D01*
X63500000Y-60960000D02*
X62230000Y-60960000D01*
X63500000Y-60960000D02*
X63500000Y-61214000D01*
X63500000Y-76200000D02*
X63500000Y-75946000D01*
X64770000Y-60960000D02*
X64770000Y-61214000D01*
X64770000Y-76200000D02*
X64770000Y-75946000D01*
X64770000Y-76200000D02*
X66040000Y-76200000D01*
X66040000Y-60960000D02*
X64770000Y-60960000D01*
X66040000Y-60960000D02*
X66040000Y-61214000D01*
X66040000Y-76200000D02*
X66040000Y-75946000D01*
X67310000Y-60960000D02*
X67310000Y-61214000D01*
X67310000Y-76200000D02*
X67310000Y-75946000D01*
X67310000Y-76200000D02*
X68580000Y-76200000D01*
X68580000Y-60960000D02*
X67310000Y-60960000D01*
X68580000Y-60960000D02*
X68580000Y-61214000D01*
X68580000Y-76200000D02*
X68580000Y-75946000D01*
X69850000Y-60960000D02*
X69850000Y-61214000D01*
X69850000Y-76200000D02*
X69850000Y-75946000D01*
X69850000Y-76200000D02*
X71120000Y-76200000D01*
X71120000Y-60960000D02*
X69850000Y-60960000D01*
X71120000Y-60960000D02*
X71120000Y-61214000D01*
X71120000Y-76200000D02*
X71120000Y-75946000D01*
X72390000Y-61215000D02*
X72390000Y-75945000D01*
X72390000Y-75945000D02*
X30480000Y-75946000D01*
X30480000Y-67691000D02*
G75*
G02*
X30480000Y-69469000I0J-889000D01*
G01*
D15*
X31711500Y-74930000D02*
G75*
G02*
X31280500Y-74930000I-215500J0D01*
G01*
X31280500Y-74930000D02*
G75*
G02*
X31711500Y-74930000I215500J0D01*
G01*
%TD*%
M02*
