M48
; DRILL file {KiCad 9.0.0} date 2025-05-09T14:52:38+0100
; FORMAT={-:-/ absolute / metric / decimal}
; #@! TF.CreationDate,2025-05-09T14:52:38+01:00
; #@! TF.GenerationSoftware,Kicad,Pcbnew,9.0.0
; #@! TF.FileFunction,Plated,1,2,PTH
FMAT,2
METRIC
; #@! TA.AperFunction,Plated,PTH,ViaDrill
T1C0.200
; #@! TA.AperFunction,Plated,PTH,ComponentDrill
T2C0.700
; #@! TA.AperFunction,Plated,PTH,ComponentDrill
T3C0.800
; #@! TA.AperFunction,Plated,PTH,ComponentDrill
T4C1.000
%
G90
G05
T1
X29.845Y-58.42
X31.115Y-79.375
X33.02Y-68.58
X33.655Y-76.835
X35.7Y-66.495
X38.645Y-78.195
X38.88Y-58.42
X40.005Y-69.215
X40.005Y-80.01
X41.275Y-59.69
X41.275Y-68.58
X41.91Y-57.15
X42.545Y-63.567
X42.545Y-69.85
X43.815Y-58.42
X43.815Y-79.714
X45.085Y-65.405
X45.085Y-67.985
X45.085Y-73.025
X45.72Y-69.215
X46.355Y-80.645
X47.625Y-57.15
X47.625Y-80.645
X48.26Y-71.755
X48.895Y-65.405
X48.895Y-66.675
X48.895Y-80.645
X50.8Y-71.12
X51.435Y-67.31
X51.435Y-69.215
X53.34Y-67.31
X53.34Y-71.12
X55.245Y-66.675
X55.245Y-71.12
X57.15Y-66.04
X57.785Y-66.675
X57.785Y-71.12
X58.42Y-67.31
X59.055Y-67.945
X62.865Y-68.58
X65.405Y-44.45
X65.405Y-69.215
X65.405Y-72.39
X67.945Y-69.215
X69.215Y-77.47
X74.93Y-59.055
X81.28Y-53.975
X86.36Y-69.85
X87.63Y-59.055
X88.9Y-71.12
X88.9Y-73.025
X90.17Y-58.42
X90.17Y-65.405
X92.71Y-70.485
X93.345Y-50.8
X93.345Y-68.237
X95.25Y-43.815
X95.885Y-73.025
X97.155Y-52.03
X97.155Y-57.15
X97.155Y-59.055
X97.155Y-67.842
X97.226Y-69.286
X97.79Y-71.12
X98.425Y-65.405
X99.06Y-68.58
X99.06Y-71.755
X100.33Y-43.18
X100.33Y-44.45
X100.33Y-53.975
X100.965Y-66.04
X101.6Y-45.085
X102.87Y-65.405
X102.87Y-71.755
X104.14Y-45.72
X107.95Y-57.15
X111.76Y-71.755
X113.665Y-71.755
X114.3Y-80.01
X114.935Y-49.53
X115.57Y-45.72
X115.57Y-71.755
X118.11Y-76.2
X121.325Y-76.2
T2
X66.675Y-35.56
X66.675Y-43.18
T3
X31.75Y-55.88
X31.75Y-58.38
X32.385Y-60.96
X32.385Y-76.2
X34.925Y-60.96
X34.925Y-76.2
X37.465Y-60.96
X37.465Y-76.2
X40.005Y-60.96
X40.005Y-76.2
X42.545Y-60.96
X42.545Y-76.2
X45.085Y-60.96
X45.085Y-76.2
X47.625Y-60.96
X47.625Y-76.2
X50.165Y-60.96
X50.165Y-76.2
X52.705Y-60.96
X52.705Y-76.2
X55.245Y-60.96
X55.245Y-76.2
X57.785Y-60.96
X57.785Y-76.2
X60.325Y-60.96
X60.325Y-76.2
X62.865Y-60.96
X62.865Y-76.2
X64.135Y-45.72
X64.135Y-53.34
X65.405Y-60.96
X65.405Y-76.2
X66.675Y-45.72
X66.675Y-53.34
X67.945Y-60.96
X67.945Y-76.2
X70.485Y-60.96
X70.485Y-76.2
X70.5Y-36.83
X70.5Y-40.005
X70.5Y-47.625
X73.0Y-36.83
X73.04Y-40.005
X73.04Y-47.625
X74.36Y-73.66
X75.58Y-40.005
X75.58Y-47.625
X76.86Y-73.66
X78.12Y-40.005
X78.12Y-47.625
X80.66Y-40.005
X80.66Y-47.625
X81.28Y-57.785
X81.28Y-60.96
X81.28Y-76.2
X83.2Y-40.005
X83.2Y-47.625
X83.78Y-57.785
X83.82Y-60.96
X83.82Y-76.2
X85.74Y-40.005
X85.74Y-47.625
X86.36Y-60.96
X86.36Y-76.2
X88.28Y-40.005
X88.28Y-47.625
X88.9Y-60.96
X88.9Y-76.2
X90.82Y-40.005
X90.82Y-47.625
X91.44Y-60.96
X91.44Y-76.2
X93.36Y-40.005
X93.36Y-47.625
X93.98Y-60.96
X93.98Y-76.2
X96.52Y-60.96
X96.52Y-76.2
X99.06Y-60.96
X99.06Y-76.2
X100.345Y-36.83
X100.345Y-39.995
X100.345Y-47.615
X101.6Y-60.96
X101.6Y-76.2
X102.845Y-36.83
X102.885Y-39.995
X102.885Y-47.615
X104.14Y-60.96
X104.14Y-76.2
X105.425Y-39.995
X105.425Y-47.615
X106.68Y-60.96
X106.68Y-76.2
X107.965Y-39.995
X107.965Y-47.615
X109.22Y-60.96
X109.22Y-76.2
X110.505Y-39.995
X110.505Y-47.615
X111.76Y-60.96
X111.76Y-76.2
X113.045Y-39.995
X113.045Y-47.615
X114.3Y-60.96
X114.3Y-76.2
X115.585Y-39.995
X115.585Y-47.615
X118.125Y-39.995
X118.125Y-47.615
T4
X33.02Y-35.56
X33.02Y-38.1
X33.02Y-40.64
X33.02Y-43.18
X33.02Y-45.72
X33.02Y-48.26
X33.02Y-50.8
X33.02Y-53.34
X35.56Y-35.56
X35.56Y-38.1
X35.56Y-40.64
X35.56Y-43.18
X35.56Y-45.72
X35.56Y-48.26
X35.56Y-50.8
X35.56Y-53.34
X38.1Y-35.56
X38.1Y-38.1
X38.1Y-40.64
X38.1Y-43.18
X38.1Y-45.72
X38.1Y-48.26
X38.1Y-50.8
X38.1Y-53.34
X40.64Y-35.56
X40.64Y-38.1
X40.64Y-40.64
X40.64Y-43.18
X40.64Y-45.72
X40.64Y-48.26
X40.64Y-50.8
X40.64Y-53.34
X43.18Y-35.56
X43.18Y-38.1
X43.18Y-40.64
X43.18Y-43.18
X43.18Y-45.72
X43.18Y-48.26
X43.18Y-50.8
X43.18Y-53.34
X45.72Y-35.56
X45.72Y-38.1
X45.72Y-40.64
X45.72Y-43.18
X45.72Y-45.72
X45.72Y-48.26
X45.72Y-50.8
X45.72Y-53.34
X48.26Y-35.56
X48.26Y-38.1
X48.26Y-40.64
X48.26Y-43.18
X48.26Y-45.72
X48.26Y-48.26
X48.26Y-50.8
X48.26Y-53.34
X50.8Y-35.56
X50.8Y-38.1
X50.8Y-40.64
X50.8Y-43.18
X50.8Y-45.72
X50.8Y-48.26
X50.8Y-50.8
X50.8Y-53.34
X53.34Y-35.56
X53.34Y-38.1
X53.34Y-40.64
X53.34Y-43.18
X53.34Y-45.72
X53.34Y-48.26
X53.34Y-50.8
X53.34Y-53.34
X55.88Y-35.56
X55.88Y-38.1
X55.88Y-40.64
X55.88Y-43.18
X55.88Y-45.72
X55.88Y-48.26
X55.88Y-50.8
X55.88Y-53.34
X58.42Y-35.56
X58.42Y-38.1
X58.42Y-40.64
X58.42Y-43.18
X58.42Y-45.72
X58.42Y-48.26
X58.42Y-50.8
X58.42Y-53.34
X60.96Y-35.56
X60.96Y-38.1
X60.96Y-40.64
X60.96Y-43.18
X60.96Y-45.72
X60.96Y-48.26
X60.96Y-50.8
X60.96Y-53.34
M30
